<svg width="20" height="25" viewBox="0 0 20 25" fill="none" xmlns="http://www.w3.org/2000/svg">
<path d="M3.29421 16.8747L9.44942 24.6191C9.58278 24.787 9.78542 24.8848 9.99982 24.8848C10.2142 24.8848 10.4169 24.787 10.5503 24.6191L16.7055 16.8747C18.2885 14.883 19.1902 12.4992 19.2446 10.1624C19.3031 7.64311 18.4067 5.38416 16.6522 3.62972C14.8821 1.85962 12.5195 0.884766 9.99982 0.884766C7.48011 0.884766 5.11756 1.85962 3.34746 3.62972C1.59298 5.3842 0.696589 7.64316 0.755136 10.1624C0.809464 12.4991 1.7112 14.883 3.29421 16.8747ZM4.34182 4.62408C5.90178 3.06417 7.95082 2.28422 9.99982 2.28422C12.0489 2.28422 14.0979 3.06417 15.6578 4.62408C18.6064 7.57261 18.5845 12.2505 15.6046 15.9998L9.99982 23.0516L4.39507 15.9998C1.41518 12.2505 1.39334 7.57261 4.34182 4.62408ZM9.99982 13.9383C12.0007 13.9383 13.6286 12.3104 13.6286 10.3095C13.6286 8.30859 12.0008 6.68072 9.99982 6.68072C7.99887 6.68072 6.371 8.30859 6.371 10.3095C6.371 12.3104 7.99892 13.9383 9.99982 13.9383ZM9.99982 8.08697C11.2253 8.08697 12.2224 9.084 12.2224 10.3095C12.2224 11.535 11.2253 12.532 9.99982 12.532C8.77428 12.532 7.77725 11.535 7.77725 10.3095C7.77725 9.084 8.77432 8.08697 9.99982 8.08697Z" fill="#44C6E9"/>
</svg>
