<svg width="22" height="19" viewBox="0 0 22 19" fill="none" xmlns="http://www.w3.org/2000/svg">
<path d="M20 6.60278C20 4.45209 18.7848 2.64833 17.126 1.88989C15.5143 1.15318 13.348 1.34751 11.29 3.48559C11.1487 3.63249 10.9539 3.71606 10.75 3.71606C10.5461 3.71606 10.3513 3.63249 10.21 3.48559C8.15201 1.34751 5.98571 1.15318 4.37402 1.88989C2.71525 2.64833 1.5 4.45209 1.5 6.60278C1.5001 8.80001 2.39948 10.4941 3.68848 11.9456C5.00318 13.4258 6.66027 14.5927 8.17578 15.7873C8.70181 16.202 9.17173 16.566 9.62402 16.8303C10.0764 17.0946 10.4405 17.2151 10.75 17.2151C11.0595 17.2151 11.4236 17.0946 11.876 16.8303C12.3283 16.566 12.7982 16.202 13.3242 15.7873C14.8397 14.5927 16.4968 13.4258 17.8115 11.9456C19.1005 10.4941 19.9999 8.80001 20 6.60278ZM21.5 6.60278C21.4999 9.26791 20.3896 11.3011 18.9336 12.9407C17.5032 14.5514 15.6795 15.8405 14.2529 16.9651C13.7407 17.3689 13.1901 17.7996 12.6328 18.1252C12.0758 18.4507 11.4403 18.7151 10.75 18.7151C10.0597 18.7151 9.42416 18.4507 8.86719 18.1252C8.30991 17.7996 7.75931 17.3689 7.24707 16.9651C5.82046 15.8405 3.99682 14.5514 2.56641 12.9407C1.11043 11.3011 9.82558e-05 9.26792 0 6.60278C0 3.89071 1.53493 1.53859 3.75098 0.525631C5.8493 -0.433497 8.43785 -0.143877 10.75 1.92505C13.0622 -0.143876 15.6507 -0.433497 17.749 0.525631C19.9651 1.53859 21.5 3.89071 21.5 6.60278Z" fill="#2B2D42"/>
</svg>
