<svg width="17" height="21" viewBox="0 0 17 21" fill="none" xmlns="http://www.w3.org/2000/svg">
<path d="M1.5 7.75C1.5 8.99264 2.50736 10 3.75 10C4.99263 9.99999 6 8.99263 6 7.75C6 6.50737 4.99263 5.50001 3.75 5.5C2.50736 5.5 1.5 6.50736 1.5 7.75ZM-3.27835e-07 7.75C-5.08894e-07 5.67893 1.67893 4 3.75 4C5.82106 4.00001 7.5 5.67894 7.5 7.75C7.5 9.82106 5.82106 11.5 3.75 11.5C1.67893 11.5 -1.79249e-08 9.82107 -3.27835e-07 7.75Z" fill="#2B2D42"/>
<path d="M10.5 12.75C10.5 11.5074 11.5074 10.5 12.75 10.5C13.9926 10.5 15 11.5074 15 12.75C15 13.9926 13.9926 15 12.75 15C11.5074 15 10.5 13.9926 10.5 12.75ZM9 12.75C9 14.8211 10.6789 16.5 12.75 16.5C14.8211 16.5 16.5 14.8211 16.5 12.75C16.5 10.6789 14.8211 9.00001 12.75 9C10.6789 9 9 10.6789 9 12.75Z" fill="#2B2D42"/>
<path d="M4.5 12.75L4.5 19.75C4.5 20.1642 4.16421 20.5 3.75 20.5C3.33579 20.5 3 20.1642 3 19.75L3 12.75C3 12.3358 3.33579 12 3.75 12C4.16421 12 4.5 12.3358 4.5 12.75Z" fill="#2B2D42"/>
<path d="M13.5 7.75L13.5 0.75C13.5 0.335786 13.1642 0 12.75 0C12.3358 0 12 0.335786 12 0.75L12 7.75C12 8.16421 12.3358 8.5 12.75 8.5C13.1642 8.5 13.5 8.16421 13.5 7.75Z" fill="#2B2D42"/>
<path d="M13.5 17.75L13.5 19.75C13.5 20.1642 13.1642 20.5 12.75 20.5C12.3358 20.5 12 20.1642 12 19.75L12 17.75C12 17.3358 12.3358 17 12.75 17C13.1642 17 13.5 17.3358 13.5 17.75Z" fill="#2B2D42"/>
<path d="M4.5 2.75L4.5 0.75C4.5 0.335786 4.16421 0 3.75 0C3.33579 0 3 0.335786 3 0.75L3 2.75C3 3.16421 3.33579 3.5 3.75 3.5C4.16421 3.5 4.5 3.16421 4.5 2.75Z" fill="#2B2D42"/>
</svg>
