<svg width="22" height="22" viewBox="0 0 22 22" fill="none" xmlns="http://www.w3.org/2000/svg">
<path d="M19.6289 20C20.0431 20 20.3789 20.3358 20.3789 20.75C20.3789 21.1642 20.0431 21.5 19.6289 21.5H1.62891C1.21469 21.5 0.878906 21.1642 0.878906 20.75C0.878906 20.3358 1.21469 20 1.62891 20H19.6289Z" fill="#2B2D42"/>
<path d="M16.8789 20.75V13.75C16.8789 13.3358 17.2147 13 17.6289 13C18.0431 13 18.3789 13.3358 18.3789 13.75V20.75C18.3789 21.1642 18.0431 21.5 17.6289 21.5C17.2147 21.5 16.8789 21.1642 16.8789 20.75Z" fill="#2B2D42"/>
<path d="M2.87891 20.75V13.75C2.87891 13.3358 3.21469 13 3.62891 13C4.04312 13 4.37891 13.3358 4.37891 13.75V20.75C4.37891 21.1642 4.04312 21.5 3.62891 21.5C3.21469 21.5 2.87891 21.1642 2.87891 20.75Z" fill="#2B2D42"/>
<path d="M15.1564 3.66886e-06C15.7424 3.66886e-06 16.239 -0.00121984 16.6476 0.0410193C17.0734 0.0850471 17.4672 0.181373 17.839 0.411136C18.2104 0.640787 18.4716 0.949707 18.7013 1.31055C18.8115 1.48377 18.9226 1.68154 19.0382 1.90137L19.4054 2.62598L19.4317 2.68555L20.8351 6.2334C21.0021 6.65559 21.1872 7.1827 21.2413 7.72168C21.2966 8.2729 21.2211 8.90451 20.7892 9.45215C20.2868 10.089 19.5056 10.5 18.629 10.5C17.8398 10.5 17.1305 10.1653 16.629 9.63282C16.1275 10.1653 15.4182 10.5 14.629 10.5C13.8398 10.5 13.1305 10.1653 12.629 9.63282C12.1275 10.1653 11.4182 10.5 10.629 10.5C9.8398 10.5 9.13052 10.1653 8.62901 9.63282C8.12752 10.1653 7.41823 10.5 6.62901 10.5C5.8398 10.5 5.13052 10.1653 4.62901 9.63282C4.12752 10.1653 3.41823 10.5 2.62901 10.5C1.75238 10.5 0.971181 10.089 0.468857 9.45215C0.0370166 8.90454 -0.0395418 8.27287 0.0157321 7.72168C0.0698498 7.18277 0.254983 6.65557 0.421982 6.2334L1.82628 2.68555L1.85265 2.62598C2.11472 2.10184 2.33529 1.65706 2.55577 1.31055C2.7855 0.949514 3.04749 0.640876 3.41905 0.411136C3.79083 0.181368 4.18465 0.0850457 4.61046 0.0410193C5.01887 -0.00120297 5.51491 3.19184e-06 6.10069 3.66886e-06H15.1564ZM6.10069 1.5C5.48419 1.5 5.07838 1.50079 4.76476 1.53321C4.46852 1.56384 4.31962 1.61766 4.20812 1.68653C4.09658 1.75546 3.98137 1.86479 3.8214 2.11621C3.65473 2.3782 3.47588 2.73409 3.20714 3.27149L1.81749 6.78516C1.66023 7.1827 1.54125 7.549 1.5089 7.8711C1.47779 8.1809 1.53267 8.37897 1.64659 8.52344C1.87671 8.81513 2.23116 9 2.62901 9C3.31933 8.99996 3.87901 8.44033 3.87901 7.75C3.87901 7.33579 4.2148 7 4.62901 7C5.04319 7.00005 5.37901 7.33582 5.37901 7.75C5.37901 8.44036 5.93866 9 6.62901 9C7.31933 8.99996 7.87901 8.44033 7.87901 7.75C7.87901 7.33579 8.2148 7 8.62901 7C9.04319 7.00005 9.37901 7.33582 9.37901 7.75C9.37901 8.44036 9.93866 9 10.629 9C11.3193 8.99996 11.879 8.44033 11.879 7.75C11.879 7.33579 12.2148 7 12.629 7C13.0432 7.00005 13.379 7.33582 13.379 7.75C13.379 8.44036 13.9387 9 14.629 9C15.3193 8.99996 15.879 8.44033 15.879 7.75C15.879 7.33579 16.2148 7 16.629 7C17.0432 7.00005 17.379 7.33582 17.379 7.75C17.379 8.44036 17.9387 9 18.629 9C19.0269 8.99998 19.3813 8.81514 19.6114 8.52344C19.7254 8.37898 19.7802 8.18089 19.7491 7.8711C19.7168 7.549 19.5978 7.18271 19.4405 6.78516L18.0499 3.27149C17.7813 2.73431 17.6033 2.37814 17.4366 2.11621C17.2767 1.86479 17.1614 1.75546 17.0499 1.68653C16.9384 1.61764 16.7895 1.56384 16.4933 1.53321C16.1796 1.50077 15.7732 1.5 15.1564 1.5H6.10069Z" fill="#2B2D42"/>
</svg>
