<svg width="15" height="20" viewBox="0 0 15 20" fill="none" xmlns="http://www.w3.org/2000/svg">
<path d="M7.24327 0C3.2493 0 0 3.2493 0 7.24318C0 12.1998 6.48195 19.4763 6.75795 19.7836C7.01715 20.0723 7.46977 20.0718 7.72852 19.7836C8.00445 19.4763 14.4865 12.1998 14.4865 7.24318C14.4863 3.2493 11.2372 0 7.24327 0ZM7.24327 10.8875C5.2338 10.8875 3.59902 9.25266 3.59902 7.24318C3.59902 5.23375 5.2338 3.59898 7.24327 3.59898C9.25268 3.59898 10.8874 5.23379 10.8874 7.24326C10.8874 9.25266 9.25268 10.8875 7.24327 10.8875Z" fill="#919191"/>
</svg>
