<svg width="24" height="24" viewBox="0 0 24 24" fill="none" xmlns="http://www.w3.org/2000/svg">
<path d="M5.88656 18.1134C9.20409 21.4309 13.4151 23.5165 17.744 23.9859C17.8324 23.9955 17.9197 24.0002 18.006 24.0002C18.5667 24.0002 19.0777 23.7984 19.4961 23.4089L23.2763 19.8897C23.7868 19.4145 24.048 18.7488 23.9929 18.0632C23.9383 17.3841 23.5784 16.7748 23.0054 16.3918L19.5194 14.0614C18.6226 13.4619 17.4635 13.576 16.7007 14.3388C16.5512 14.4883 16.4059 14.6473 16.2521 14.8158C15.5536 15.5805 15.0175 16.1097 14.4796 15.9515C11.5067 15.0779 8.92219 12.4934 8.04853 9.52047C7.95942 9.21733 8.03344 8.92727 8.25689 8.70382C8.37872 8.58199 8.52075 8.45102 8.67108 8.31232C9.13908 7.88069 9.66956 7.39141 10.0004 6.80918C10.568 5.81013 10.2801 4.99155 9.93863 4.48076L7.60824 0.994709C7.22517 0.421709 6.61599 0.0618023 5.93681 0.00723982C5.25131 -0.0478383 4.58555 0.213302 4.11033 0.723771L0.591048 4.50396C0.141658 4.98668 -0.0578424 5.59254 0.0141107 6.25601C0.48347 10.5849 2.56903 14.7959 5.88656 18.1134ZM1.62033 5.46213L5.13956 1.68185C5.30461 1.50461 5.52722 1.40622 5.75859 1.40622C5.78039 1.40622 5.80224 1.40711 5.82413 1.40885C6.07589 1.4291 6.29428 1.55951 6.43913 1.77611L8.76947 5.26216C9.14199 5.81941 8.7645 6.31296 7.7176 7.27854C7.55649 7.42708 7.40433 7.56747 7.26244 7.70936C6.67589 8.29587 6.46538 9.12115 6.69928 9.91694C7.70236 13.3302 10.6697 16.2976 14.083 17.3007C14.2938 17.3626 14.4959 17.3906 14.6898 17.3906C15.8048 17.3905 16.6487 16.4667 17.2904 15.764C17.4331 15.6078 17.568 15.4601 17.695 15.3331C17.9772 15.0509 18.406 15.0087 18.7378 15.2305L22.2238 17.5608C22.4404 17.7057 22.5709 17.9241 22.5911 18.1758C22.6115 18.4304 22.512 18.6798 22.3181 18.8604L18.5378 22.3796C18.358 22.5471 18.1479 22.6151 17.8955 22.5878C9.55669 21.6836 2.31638 14.4433 1.41216 6.10441C1.38478 5.85208 1.45289 5.64199 1.62033 5.46213Z" fill="#44C6E9"/>
</svg>
