<svg width="16" height="16" viewBox="0 0 16 16" fill="none" xmlns="http://www.w3.org/2000/svg">
<path d="M7.61753 1.59959C7.90578 1.49624 8.2256 1.51362 8.50327 1.65135C8.78887 1.79303 8.93449 2.03978 8.99839 2.15428C9.07212 2.2864 9.14745 2.4557 9.21811 2.61424L10.3832 5.23143L13.2347 5.53318C13.4072 5.55139 13.5912 5.57033 13.7396 5.59959C13.8682 5.62495 14.1484 5.68629 14.3714 5.91404C14.6191 6.16713 14.7345 6.52181 14.683 6.87205C14.6365 7.18773 14.4458 7.40296 14.3568 7.499C14.2539 7.6099 14.1155 7.73347 13.9867 7.84959L11.8578 9.76658L12.4525 12.5713C12.4885 12.7411 12.5282 12.922 12.5462 13.0722C12.5618 13.2023 12.5895 13.4879 12.4417 13.7705C12.2775 14.0845 11.9756 14.3031 11.6263 14.3623C11.312 14.4154 11.0489 14.3011 10.93 14.2461C10.7928 14.1825 10.633 14.0896 10.4828 14.0029L7.99936 12.5703L5.51792 14.0029C5.36757 14.0896 5.20699 14.1825 5.06968 14.2461C4.95075 14.3011 4.68773 14.4164 4.37339 14.3633C4.06797 14.3115 3.79889 14.1369 3.62632 13.8838L3.55796 13.7705C3.41024 13.4879 3.43787 13.2023 3.45347 13.0722C3.4715 12.922 3.5112 12.7411 3.54722 12.5713L4.14097 9.76658L2.01304 7.84959C1.88416 7.73344 1.7458 7.6099 1.64292 7.499C1.5539 7.40301 1.36341 7.18833 1.31675 6.87303C1.26524 6.52274 1.3805 6.16714 1.62827 5.91404L1.71421 5.83592C1.91897 5.67118 2.14767 5.62177 2.26011 5.59959C2.40846 5.57033 2.59248 5.55139 2.76499 5.53318L5.61557 5.23143L6.78159 2.61424C6.85226 2.45569 6.92758 2.28641 7.00132 2.15428C7.06521 2.03979 7.21081 1.79304 7.49643 1.65135L7.61753 1.59959Z" fill="#FABA47"/>
</svg>
