<svg width="24" height="18" viewBox="0 0 24 18" fill="none" xmlns="http://www.w3.org/2000/svg">
<path d="M23.2969 0.449219H0.703125C0.314812 0.449219 0 0.764031 0 1.15234V16.6174C0 17.0058 0.314812 17.3206 0.703125 17.3206H23.2969C23.6852 17.3206 24 17.0058 24 16.6174V1.15234C24 0.764031 23.6852 0.449219 23.2969 0.449219ZM22.5938 15.1638L14.6797 8.89745L22.5938 2.63102V15.1638ZM1.40625 2.63102L9.3203 8.89741L1.40625 15.1639V2.63102ZM12 9.22558L2.69208 1.85547H21.3079L12 9.22558ZM10.4529 9.79427L11.5635 10.6736C11.6914 10.7749 11.8457 10.8255 12 10.8255C12.1543 10.8255 12.3086 10.7749 12.4365 10.6736L13.5471 9.79427L21.2762 15.9143H2.72381L10.4529 9.79427Z" fill="#44C6E9"/>
</svg>
