<svg width="22" height="22" viewBox="0 0 22 22" fill="none" xmlns="http://www.w3.org/2000/svg">
<path d="M19 10.25C19 5.41751 15.0825 1.5 10.25 1.5C5.41751 1.5 1.5 5.41751 1.5 10.25C1.5 15.0825 5.41751 19 10.25 19C15.0825 19 19 15.0825 19 10.25ZM20.5 10.25C20.5 15.9109 15.9109 20.5 10.25 20.5C4.58908 20.5 0 15.9109 0 10.25C0 4.58908 4.58908 0 10.25 0C15.9109 0 20.5 4.58908 20.5 10.25Z" fill="#B5B5B5"/>
<path d="M16.7197 16.7197C17.0126 16.4268 17.4873 16.4268 17.7802 16.7197L21.2802 20.2197C21.5731 20.5126 21.5731 20.9873 21.2802 21.2802C20.9873 21.5731 20.5126 21.5731 20.2197 21.2802L16.7197 17.7802C16.4268 17.4873 16.4268 17.0126 16.7197 16.7197Z" fill="#B5B5B5"/>
</svg>
