<svg width="20" height="22" viewBox="0 0 20 22" fill="none" xmlns="http://www.w3.org/2000/svg">
<path d="M18 8.75C18 6.84324 17.9985 5.48859 17.8604 4.46094C17.7251 3.45485 17.4711 2.87536 17.0479 2.45215C16.6246 2.02894 16.0452 1.77491 15.0391 1.63965C14.0114 1.5015 12.6568 1.5 10.75 1.5H8.75C6.84324 1.5 5.48859 1.5015 4.46094 1.63965C3.45485 1.77491 2.87536 2.02894 2.45215 2.45215C2.02894 2.87536 1.77491 3.45485 1.63965 4.46094C1.5015 5.48859 1.5 6.84324 1.5 8.75V12.75C1.5 14.6568 1.5015 16.0114 1.63965 17.0391C1.77491 18.0452 2.02894 18.6246 2.45215 19.0479C2.87536 19.4711 3.45485 19.7251 4.46094 19.8604C5.48859 19.9985 6.84324 20 8.75 20H10.75C12.6568 20 14.0114 19.9985 15.0391 19.8604C16.0452 19.7251 16.6246 19.4711 17.0479 19.0479C17.4711 18.6246 17.7251 18.0452 17.8604 17.0391C17.9985 16.0114 18 14.6568 18 12.75V8.75ZM19.5 12.75C19.5 14.6144 19.5014 16.0884 19.3467 17.2393C19.189 18.4116 18.8567 19.3601 18.1084 20.1084C17.3601 20.8567 16.4116 21.189 15.2393 21.3467C14.0884 21.5014 12.6144 21.5 10.75 21.5H8.75C6.88558 21.5 5.41159 21.5014 4.26074 21.3467C3.08844 21.189 2.13991 20.8567 1.3916 20.1084C0.643293 19.3601 0.310963 18.4116 0.153321 17.2393C-0.00140658 16.0884 4.48929e-07 14.6144 4.48929e-07 12.75V8.75C4.48929e-07 6.88558 -0.00140658 5.41159 0.153321 4.26074C0.310963 3.08844 0.643293 2.13991 1.3916 1.3916C2.13991 0.643293 3.08844 0.310963 4.26074 0.153321C5.41159 -0.00140658 6.88558 4.48929e-07 8.75 4.48929e-07H10.75C12.6144 4.48929e-07 14.0884 -0.00140658 15.2393 0.153321C16.4116 0.310963 17.3601 0.643293 18.1084 1.3916C18.8567 2.13991 19.189 3.08844 19.3467 4.26074C19.5014 5.41159 19.5 6.88558 19.5 8.75V12.75Z" fill="#2B2D42"/>
<path d="M13.75 6C14.1642 6 14.5 6.33579 14.5 6.75C14.5 7.16421 14.1642 7.5 13.75 7.5H5.75C5.33579 7.5 5 7.16421 5 6.75C5 6.33579 5.33579 6 5.75 6H13.75Z" fill="#2B2D42"/>
<path d="M13.75 10C14.1642 10 14.5 10.3358 14.5 10.75C14.5 11.1642 14.1642 11.5 13.75 11.5H5.75C5.33579 11.5 5 11.1642 5 10.75C5 10.3358 5.33579 10 5.75 10H13.75Z" fill="#2B2D42"/>
<path d="M10.75 14C11.1642 14 11.5 14.3358 11.5 14.75C11.5 15.1642 11.1642 15.5 10.75 15.5H5.75C5.33579 15.5 5 15.1642 5 14.75C5 14.3358 5.33579 14 5.75 14H10.75Z" fill="#2B2D42"/>
</svg>
