<svg width="9" height="11" viewBox="0 0 9 11" fill="none" xmlns="http://www.w3.org/2000/svg">
<path d="M8 4.57129C7.99981 2.59048 6.42455 1 4.5 1C2.57545 1 1.00019 2.59048 1 4.57129C1 5.59749 1.29582 6.72479 1.82715 7.70312C2.35945 8.68325 3.10671 9.47538 3.98047 9.88379C4.31063 10.0381 4.68937 10.0381 5.01953 9.88379C5.89329 9.47538 6.64055 8.68325 7.17285 7.70312C7.70418 6.72479 8 5.59749 8 4.57129ZM9 4.57129C9 5.77618 8.65673 7.06674 8.05176 8.18066C7.4478 9.29265 6.5613 10.2674 5.44336 10.79C4.84484 11.0698 4.15516 11.0698 3.55664 10.79C2.4387 10.2674 1.5522 9.29265 0.948242 8.18066C0.343274 7.06674 0 5.77618 0 4.57129C0.000190083 2.05501 2.00651 0 4.5 0C6.99349 0 8.99981 2.05501 9 4.57129Z" fill="#EDF2F4"/>
<path d="M5.5 4.5C5.5 3.94772 5.05228 3.5 4.5 3.5C3.94772 3.5 3.5 3.94772 3.5 4.5C3.5 5.05228 3.94772 5.5 4.5 5.5C5.05228 5.5 5.5 5.05228 5.5 4.5ZM6.5 4.5C6.5 5.60457 5.60457 6.5 4.5 6.5C3.39543 6.5 2.5 5.60457 2.5 4.5C2.5 3.39543 3.39543 2.5 4.5 2.5C5.60457 2.5 6.5 3.39543 6.5 4.5Z" fill="#EDF2F4"/>
</svg>
