<svg width="14" height="14" viewBox="0 0 14 14" fill="none" xmlns="http://www.w3.org/2000/svg">
<path d="M2.11635 0.998483C2.11635 0.447212 2.56361 6.03623e-05 3.11486 -2.87994e-05L12.9978 -2.87151e-05C13.2624 8.63563e-05 13.5164 0.105648 13.7035 0.292758C13.8904 0.479816 13.9955 0.733367 13.9956 0.997793V10.8807C13.9956 11.432 13.5484 11.8792 12.9971 11.8792C12.4459 11.8791 11.9986 11.4319 11.9986 10.8807L11.9993 3.40845L1.70341 13.7043C1.31366 14.0941 0.681826 14.0939 0.291955 13.7043C-0.0978926 13.3145 -0.0985828 12.682 0.291264 12.2922L10.5871 1.9963L3.11486 1.997C2.56366 1.99691 2.11643 1.54968 2.11635 0.998483Z" fill="#03010e"/>
</svg>
