<svg width="372.528" height="67.896" viewBox="0 0 372.528 67.896" fill="none" xmlns="http://www.w3.org/2000/svg" role="img" aria-labelledby="title desc">
  <path d="M80 0L80 710L389 710Q437 710 477 690Q517 670 546.5 637Q576 604 592.5 563Q609 522 609 479Q609 432 592 389Q575 346 543.5 315Q512 284 470 270L637 0L511 0L357 247L192 247L192 0ZM192 346L388 346Q419 346 443 364Q467 382 481 412.5Q495 443 495 479Q495 516 479 545.5Q463 575 437.5 593Q412 611 382 611L192 611Z" transform="translate(-5.76 52.56) scale(0.072000 -0.072000)" fill="#ffffff"/>
  <path d="M80 0L80 710L192 710L192 99L573 99L573 0Z" transform="translate(41.832 52.56) scale(0.072000 -0.072000)" fill="#ffffff"/>
  <path d="M28 153Q28 203 56.5 240.5Q85 278 135 298.5Q185 319 251 319Q286 319 322.5 314Q359 309 387 298L387 331Q387 386 354 417Q321 448 259 448Q215 448 176 432.5Q137 417 93 389L56 463Q108 498 160.5 515Q213 532 271 532Q376 532 436.5 476.5Q497 421 497 319L497 124Q497 105 503.5 97Q510 89 526 88L526 0Q511 -3 499 -4Q487 -5 479 -5Q444 -5 426 12Q408 29 405 52L402 82Q368 38 315 14Q262 -10 208 -10Q156 -10 115 11.5Q74 33 51 70Q28 107 28 153ZM361 121Q373 134 380 147Q387 160 387 170L387 230Q359 241 328 246.5Q297 252 267 252Q207 252 169.5 228Q132 204 132 162Q132 139 144.5 118Q157 97 180.5 84Q204 71 239 71Q275 71 308 85Q341 99 361 121Z" transform="translate(83.88 52.56) scale(0.072000 -0.072000)" fill="#ffffff"/>
  <path d="M348 -10Q288 -10 239.5 18.5Q191 47 163 95L163 0L66 0L66 730L176 730L176 424Q207 474 253.5 503Q300 532 363 532Q415 532 458 510Q501 488 531.5 450Q562 412 578.5 363Q595 314 595 259Q595 204 576.5 155Q558 106 524 69Q490 32 445.5 11Q401 -10 348 -10ZM319 84Q355 84 385 98.5Q415 113 437 137Q459 161 470.5 193Q482 225 482 259Q482 306 462.5 347Q443 388 408 413Q373 438 327 438Q294 438 265 422.5Q236 407 213.5 381.5Q191 356 176 325L176 187Q182 164 197 145.5Q212 127 232 113.5Q252 100 275 92Q298 84 319 84Z" transform="translate(124.488 52.56) scale(0.072000 -0.072000)" fill="#ffffff"/>
  <path d="M374 -5Q303 -5 242 25.5Q181 56 136 108Q91 160 66.5 224Q42 288 42 356Q42 428 66.5 492.5Q91 557 135 607Q179 657 239 686Q299 715 370 715Q475 715 541 672Q607 629 641 560L587 524Q553 590 496 621Q439 652 369 652Q310 652 262.5 627Q215 602 181 560Q147 518 129.5 465Q112 412 112 355Q112 295 132 241.5Q152 188 189 146.5Q226 105 274.5 81.5Q323 58 379 58Q444 58 502 90.5Q560 123 613 191L613 117Q512 -5 374 -5ZM602 295L444 295L444 349L661 349L661 0L602 0Z" transform="translate(169.704 52.56) scale(0.072000 -0.072000)" fill="#ffffff"/>
  <path d="M335 461Q267 459 215.5 423Q164 387 143 324L143 0L75 0L75 521L139 521L139 396Q166 451 210.5 485Q255 519 305 523Q315 524 322.5 524Q330 524 335 523Z" transform="translate(221.256 52.56) scale(0.072000 -0.072000)" fill="#ffffff"/>
  <path d="M297 -10Q241 -10 193.5 11.5Q146 33 111.5 70.5Q77 108 58 156.5Q39 205 39 259Q39 315 58 363.5Q77 412 112 449.5Q147 487 194.5 508.5Q242 530 298 530Q354 530 401 508.5Q448 487 483 449.5Q518 412 537 363.5Q556 315 556 259Q556 205 537 156.5Q518 108 483.5 70.5Q449 33 401.5 11.5Q354 -10 297 -10ZM108 258Q108 200 133.5 152.5Q159 105 202 77.5Q245 50 297 50Q349 50 392 78Q435 106 461 154.5Q487 203 487 260Q487 318 461 366Q435 414 392 442Q349 470 297 470Q245 470 202.5 441Q160 412 134 364.5Q108 317 108 258Z" transform="translate(245.376 52.56) scale(0.072000 -0.072000)" fill="#ffffff"/>
  <path d="M70 215L70 521L138 521L138 227Q138 138 168.5 94Q199 50 259 50Q299 50 336.5 67.5Q374 85 403 117.5Q432 150 447 193L447 521L515 521L515 82Q515 68 521 61.5Q527 55 539 54L539 0Q527 -1 520 -1.5Q513 -2 507 -2Q487 0 472.5 14Q458 28 457 48L455 118Q421 58 362.5 24Q304 -10 236 -10Q154 -10 112 47Q70 104 70 215Z" transform="translate(288.216 52.56) scale(0.072000 -0.072000)" fill="#ffffff"/>
  <path d="M341 -10Q276 -10 224.5 24Q173 58 143 108L143 -213L75 -213L75 521L136 521L136 420Q167 469 219 499.5Q271 530 330 530Q384 530 429 507.5Q474 485 507 447Q540 409 558.5 360.5Q577 312 577 260Q577 187 547.5 125.5Q518 64 465 27Q412 -10 341 -10ZM322 50Q365 50 399 67.5Q433 85 457.5 115Q482 145 495 182.5Q508 220 508 260Q508 302 493.5 340Q479 378 452 407Q425 436 390 453Q355 470 314 470Q288 470 260 460Q232 450 206.5 431.5Q181 413 164 390Q147 367 143 341L143 181Q159 144 186 114.5Q213 85 248.5 67.5Q284 50 322 50Z" transform="translate(330.984 52.56) scale(0.072000 -0.072000)" fill="#ffffff"/>
</svg>
