<svg width="16" height="16" viewBox="0 0 16 16" fill="none" xmlns="http://www.w3.org/2000/svg">
<path d="M5.61454 13.7454C6.78495 14.3596 7.37016 14.6667 7.99967 14.6667V7.99999L1.75835 4.71509C1.74916 4.72986 1.74014 4.74476 1.73127 4.75982C1.33301 5.43616 1.33301 6.27777 1.33301 7.961V8.03899C1.33301 9.72222 1.33301 10.5638 1.73127 11.2402C2.12954 11.9165 2.84676 12.2929 4.2812 13.0457L5.61454 13.7454Z" fill="#B5B5B5"/>
<path opacity="0.7" d="M11.7186 2.95439L10.3853 2.25469C9.21484 1.64048 8.62963 1.33337 8.00011 1.33337C7.3706 1.33337 6.78539 1.64048 5.61497 2.25468L4.28164 2.95439C2.87913 3.69039 2.16227 4.06658 1.75879 4.71513L8.00011 8.00004L14.2414 4.71513C13.838 4.06658 13.1211 3.69039 11.7186 2.95439Z" fill="#B5B5B5"/>
<path opacity="0.5" d="M14.2684 4.75994C14.2595 4.74489 14.2505 4.72998 14.2413 4.71521L8 8.00012V14.6668C8.62951 14.6668 9.21472 14.3597 10.3851 13.7455L11.7185 13.0458C13.1529 12.293 13.8701 11.9166 14.2684 11.2403C14.6667 10.564 14.6667 9.72234 14.6667 8.03911V7.96112C14.6667 6.2779 14.6667 5.43628 14.2684 4.75994Z" fill="#B5B5B5"/>
</svg>
