<svg width="13" height="9" viewBox="0 0 13 9" fill="none" xmlns="http://www.w3.org/2000/svg">
<path d="M1 2C0.447864 1.99982 0 1.55218 0 1C0 0.447824 0.447864 0.000175711 1 0L11.667 0C12.2193 0 12.667 0.447715 12.667 1C12.667 1.55228 12.2193 2 11.667 2L1 2Z" fill="white"/>
<path d="M1.00098 5.33337C0.448692 5.33337 0.000976562 4.88566 0.000976562 4.33337C0.000976562 3.78109 0.448692 3.33337 1.00098 3.33337L8.33398 3.33337C8.88627 3.33337 9.33398 3.78109 9.33398 4.33337C9.33398 4.88566 8.88627 5.33337 8.33398 5.33337L1.00098 5.33337Z" fill="white"/>
<path d="M1.00098 5.33337C0.448692 5.33337 0.000976562 4.88566 0.000976562 4.33337C0.000976562 3.78109 0.448692 3.33337 1.00098 3.33337L8.33398 3.33337C8.88627 3.33337 9.33398 3.78109 9.33398 4.33337C9.33398 4.88566 8.88627 5.33337 8.33398 5.33337L1.00098 5.33337Z" fill="black"/>
<path d="M1.00098 8.66675C0.448692 8.66675 0.000976562 8.21903 0.000976562 7.66675C0.000976562 7.11446 0.448692 6.66675 1.00098 6.66675H4.33398C4.88627 6.66675 5.33398 7.11446 5.33398 7.66675C5.33398 8.21903 4.88627 8.66675 4.33398 8.66675H1.00098Z" fill="white"/>
</svg>
