<svg width="22" height="22" viewBox="0 0 22 22" fill="none" xmlns="http://www.w3.org/2000/svg">
<path d="M1.5 10.75C1.5 5.64137 5.64137 1.5 10.75 1.5C15.8586 1.5 20 5.64137 20 10.75C20 15.8586 15.8586 20 10.75 20C9.26894 20 7.87113 19.6524 6.63184 19.0352C6.13445 18.7874 5.53925 18.6923 4.95508 18.8486L2.72949 19.4443C2.32073 19.5536 1.94636 19.1793 2.05566 18.7705L2.65137 16.5449C2.80767 15.9608 2.71256 15.3656 2.46484 14.8682C1.84757 13.6289 1.5 12.2311 1.5 10.75ZM0 10.75C0 12.4683 0.403652 14.0947 1.12207 15.5371C1.2292 15.7523 1.25161 15.9724 1.20215 16.1572L0.607422 18.3828C0.199699 19.9066 1.59335 21.3003 3.11719 20.8926L5.34277 20.2979C5.52762 20.2484 5.74771 20.2708 5.96289 20.3779C7.40527 21.0963 9.03169 21.5 10.75 21.5C16.6871 21.5 21.5 16.6871 21.5 10.75C21.5 4.81294 16.6871 0 10.75 0C4.81294 0 0 4.81294 0 10.75Z" fill="#2B2D42"/>
<path d="M14.75 8.5C15.1642 8.5 15.5 8.83579 15.5 9.25C15.5 9.66421 15.1642 10 14.75 10H6.75C6.33579 10 6 9.66421 6 9.25C6 8.83579 6.33579 8.5 6.75 8.5H14.75Z" fill="#2B2D42"/>
<path d="M12.25 12C12.6642 12 13 12.3358 13 12.75C13 13.1642 12.6642 13.5 12.25 13.5H6.75C6.33579 13.5 6 13.1642 6 12.75C6 12.3358 6.33579 12 6.75 12H12.25Z" fill="#2B2D42"/>
</svg>
