<svg width="22" height="22" viewBox="0 0 22 22" fill="none" xmlns="http://www.w3.org/2000/svg">
<path d="M2.5 10.75C2.5 12.647 2.50122 14.5188 2.66113 16.0615C2.74096 16.8316 2.85752 17.4896 3.02148 18.0098C3.18877 18.5403 3.38279 18.8543 3.56641 19.0176C4.06099 19.4572 4.74426 19.7201 5.90137 19.8584C7.07186 19.9983 8.6098 20 10.75 20C12.8902 20 14.4281 19.9983 15.5986 19.8584C16.7557 19.7201 17.439 19.4572 17.9336 19.0176C18.1172 18.8543 18.3112 18.5403 18.4785 18.0098C18.6425 17.4896 18.759 16.8316 18.8389 16.0615C18.9988 14.5188 19 12.647 19 10.75H20.5C20.5 12.6241 20.5006 14.581 20.3311 16.2168C20.2461 17.0359 20.1159 17.8053 19.9092 18.4609C19.7059 19.1057 19.4057 19.7162 18.9307 20.1387C18.1072 20.8706 17.0701 21.194 15.7764 21.3486C14.4961 21.5016 12.8522 21.5 10.75 21.5C8.64779 21.5 7.0039 21.5016 5.72363 21.3486C4.42991 21.194 3.39277 20.8706 2.56934 20.1387C2.09431 19.7162 1.79413 19.1057 1.59082 18.4609C1.38412 17.8053 1.25387 17.0359 1.16895 16.2168C0.999371 14.581 1 12.6241 1 10.75H2.5Z" fill="#2B2D42"/>
<path d="M20 9.35938C20 8.11621 19.9987 7.24888 19.9209 6.58692C19.845 5.94129 19.7052 5.58827 19.4951 5.33008C19.3981 5.21085 19.2892 5.10189 19.1699 5.00488C18.9117 4.79481 18.5587 4.65497 17.9131 4.5791C17.2511 4.50135 16.3838 4.5 15.1406 4.5H6.35938C5.11622 4.5 4.24888 4.50135 3.58692 4.5791C2.9413 4.65497 2.58828 4.79481 2.33009 5.00488C2.21086 5.1019 2.1019 5.21085 2.00489 5.33008C1.79481 5.58827 1.65497 5.94129 1.57911 6.58692C1.50135 7.24888 1.50001 8.11621 1.50001 9.35938C1.50001 9.68497 1.50057 9.87362 1.51466 10.0127C1.52289 10.0939 1.53403 10.1276 1.53809 10.1377C1.54544 10.1495 1.55331 10.1615 1.56251 10.1719C1.57118 10.1788 1.60072 10.1984 1.67579 10.2295C1.80502 10.283 1.98564 10.338 2.29786 10.4316L8.30567 12.2334L7.87403 13.6699L1.8672 11.8682C1.58404 11.7832 1.31731 11.7046 1.10157 11.6152C0.871347 11.5199 0.635602 11.3885 0.437508 11.1641C0.373134 11.0911 0.315056 11.0123 0.263679 10.9297C0.105707 10.6755 0.047619 10.4119 0.0224684 10.1641C-0.00105626 9.93194 6.61161e-06 9.65468 7.50427e-06 9.35938C7.50427e-06 8.15255 -0.00158519 7.18099 0.0888747 6.41113C0.181278 5.62509 0.378007 4.95163 0.840828 4.38281C1.00248 4.18415 1.18415 4.00248 1.38282 3.84082C1.95163 3.378 2.62509 3.18127 3.41114 3.08887C4.181 2.99841 5.15256 3 6.35938 3H15.1406C16.3475 3 17.319 2.99841 18.0889 3.08887C18.8749 3.18127 19.5484 3.378 20.1172 3.84082C20.3159 4.00248 20.4975 4.18415 20.6592 4.38281C21.122 4.95163 21.3187 5.62509 21.4111 6.41113C21.5016 7.18099 21.5 8.15255 21.5 9.35938C21.5 9.65468 21.5011 9.93194 21.4775 10.1641C21.4524 10.4119 21.3943 10.6755 21.2363 10.9297C21.185 11.0123 21.1269 11.0911 21.0625 11.1641C20.8644 11.3885 20.6287 11.5199 20.3984 11.6152C20.1827 11.7046 19.916 11.7832 19.6328 11.8682L13.626 13.6699L13.1943 12.2334L19.2022 10.4316C19.5144 10.338 19.695 10.283 19.8242 10.2295C19.8993 10.1984 19.9288 10.1788 19.9375 10.1719C19.9467 10.1615 19.9546 10.1495 19.9619 10.1377C19.966 10.1276 19.9771 10.0939 19.9854 10.0127C19.9994 9.87362 20 9.68497 20 9.35938Z" fill="#2B2D42"/>
<path d="M12.1689 1.09248e-05C12.2922 1.09248e-05 12.3862 -0.00044605 12.4746 0.00489374C13.535 0.0691167 14.4641 0.738914 14.8604 1.72462C14.8934 1.8068 14.9229 1.89579 14.9619 2.01271L14.9873 2.08985C15.0061 2.1462 15.012 2.16221 15.0166 2.17482C15.1765 2.61683 15.7069 2.98559 16.2686 3.00001L16.2314 4.50001C15.1464 4.47251 14.0059 3.7926 13.6055 2.68556C13.5929 2.65076 13.5806 2.61303 13.5645 2.56446L13.5391 2.48732C13.4939 2.35198 13.4808 2.3141 13.4688 2.28419C13.2886 1.83614 12.8658 1.53116 12.3838 1.50196C12.3516 1.50004 12.3116 1.50001 12.1689 1.50001H9.33105C9.188 1.50001 9.14844 1.50001 9.11621 1.50196C8.6342 1.53116 8.21235 1.83614 8.03223 2.28419C8.0202 2.31413 8.00711 2.35173 7.96191 2.48732L7.93652 2.56446C7.92019 2.61345 7.90715 2.65067 7.89453 2.68556C7.49397 3.79267 6.35336 4.47252 5.26855 4.50001L5.23145 3.00001C5.79331 2.98558 6.32454 2.61667 6.48438 2.17482C6.48894 2.16217 6.49395 2.14608 6.5127 2.08985L6.53906 2.01271C6.57804 1.89579 6.60759 1.80681 6.64062 1.72462C7.03688 0.738944 7.965 0.0691531 9.02539 0.00489374C9.11385 -0.00046357 9.20775 1.03732e-05 9.33105 1.09248e-05H12.1689Z" fill="#2B2D42"/>
<path d="M9 13.7422L9.54297 13.959C10.3178 14.2689 11.1822 14.2689 11.957 13.959L12.5 13.7422V12H9V13.7422ZM14 13.9111C14 14.4223 13.6884 14.8824 13.2139 15.0723L12.5137 15.3525C11.3815 15.8052 10.1185 15.8052 8.98633 15.3525L8.28613 15.0723C7.81156 14.8824 7.5 14.4223 7.5 13.9111V11.75C7.5 11.0596 8.05964 10.5 8.75 10.5H12.75C13.4404 10.5 14 11.0596 14 11.75V13.9111Z" fill="#2B2D42"/>
</svg>
