<svg width="17" height="13" viewBox="0 0 17 13" fill="none" xmlns="http://www.w3.org/2000/svg">
<path d="M9.66016 0.300683C10.0463 -0.0940729 10.6794 -0.101011 11.0742 0.285058L16.6992 5.78506C16.8916 5.97319 17 6.23085 17 6.4999C17 6.76895 16.8916 7.02662 16.6992 7.21475L11.0742 12.7147C10.6794 13.1008 10.0463 13.0939 9.66016 12.6991C9.27409 12.3043 9.28103 11.6712 9.67578 11.2851L13.5469 7.4999H1C0.447715 7.4999 0 7.05219 0 6.4999C0 5.94762 0.447715 5.4999 1 5.4999H13.5469L9.67578 1.71475C9.28103 1.32862 9.27409 0.695526 9.66016 0.300683Z" fill="white"/>
</svg>
