<svg xmlns="http://www.w3.org/2000/svg"><symbol id="icon-bag" viewBox="0 0 22 22"><path d="M2.5 10.75C2.5 12.647 2.50122 14.5188 2.66113 16.0615C2.74096 16.8316 2.85752 17.4896 3.02148 18.0098C3.18877 18.5403 3.38279 18.8543 3.56641 19.0176C4.06099 19.4572 4.74426 19.7201 5.90137 19.8584C7.07186 19.9983 8.6098 20 10.75 20C12.8902 20 14.4281 19.9983 15.5986 19.8584C16.7557 19.7201 17.439 19.4572 17.9336 19.0176C18.1172 18.8543 18.3112 18.5403 18.4785 18.0098C18.6425 17.4896 18.759 16.8316 18.8389 16.0615C18.9988 14.5188 19 12.647 19 10.75H20.5C20.5 12.6241 20.5006 14.581 20.3311 16.2168C20.2461 17.0359 20.1159 17.8053 19.9092 18.4609C19.7059 19.1057 19.4057 19.7162 18.9307 20.1387C18.1072 20.8706 17.0701 21.194 15.7764 21.3486C14.4961 21.5016 12.8522 21.5 10.75 21.5C8.64779 21.5 7.0039 21.5016 5.72363 21.3486C4.42991 21.194 3.39277 20.8706 2.56934 20.1387C2.09431 19.7162 1.79413 19.1057 1.59082 18.4609C1.38412 17.8053 1.25387 17.0359 1.16895 16.2168C0.999371 14.581 1 12.6241 1 10.75H2.5Z"></path><path d="M20 9.35938C20 8.11621 19.9987 7.24888 19.9209 6.58692C19.845 5.94129 19.7052 5.58827 19.4951 5.33008C19.3981 5.21085 19.2892 5.10189 19.1699 5.00488C18.9117 4.79481 18.5587 4.65497 17.9131 4.5791C17.2511 4.50135 16.3838 4.5 15.1406 4.5H6.35938C5.11622 4.5 4.24888 4.50135 3.58692 4.5791C2.9413 4.65497 2.58828 4.79481 2.33009 5.00488C2.21086 5.1019 2.1019 5.21085 2.00489 5.33008C1.79481 5.58827 1.65497 5.94129 1.57911 6.58692C1.50135 7.24888 1.50001 8.11621 1.50001 9.35938C1.50001 9.68497 1.50057 9.87362 1.51466 10.0127C1.52289 10.0939 1.53403 10.1276 1.53809 10.1377C1.54544 10.1495 1.55331 10.1615 1.56251 10.1719C1.57118 10.1788 1.60072 10.1984 1.67579 10.2295C1.80502 10.283 1.98564 10.338 2.29786 10.4316L8.30567 12.2334L7.87403 13.6699L1.8672 11.8682C1.58404 11.7832 1.31731 11.7046 1.10157 11.6152C0.871347 11.5199 0.635602 11.3885 0.437508 11.1641C0.373134 11.0911 0.315056 11.0123 0.263679 10.9297C0.105707 10.6755 0.047619 10.4119 0.0224684 10.1641C-0.00105626 9.93194 6.61161e-06 9.65468 7.50427e-06 9.35938C7.50427e-06 8.15255 -0.00158519 7.18099 0.0888747 6.41113C0.181278 5.62509 0.378007 4.95163 0.840828 4.38281C1.00248 4.18415 1.18415 4.00248 1.38282 3.84082C1.95163 3.378 2.62509 3.18127 3.41114 3.08887C4.181 2.99841 5.15256 3 6.35938 3H15.1406C16.3475 3 17.319 2.99841 18.0889 3.08887C18.8749 3.18127 19.5484 3.378 20.1172 3.84082C20.3159 4.00248 20.4975 4.18415 20.6592 4.38281C21.122 4.95163 21.3187 5.62509 21.4111 6.41113C21.5016 7.18099 21.5 8.15255 21.5 9.35938C21.5 9.65468 21.5011 9.93194 21.4775 10.1641C21.4524 10.4119 21.3943 10.6755 21.2363 10.9297C21.185 11.0123 21.1269 11.0911 21.0625 11.1641C20.8644 11.3885 20.6287 11.5199 20.3984 11.6152C20.1827 11.7046 19.916 11.7832 19.6328 11.8682L13.626 13.6699L13.1943 12.2334L19.2022 10.4316C19.5144 10.338 19.695 10.283 19.8242 10.2295C19.8993 10.1984 19.9288 10.1788 19.9375 10.1719C19.9467 10.1615 19.9546 10.1495 19.9619 10.1377C19.966 10.1276 19.9771 10.0939 19.9854 10.0127C19.9994 9.87362 20 9.68497 20 9.35938Z"></path><path d="M12.1689 1.09248e-05C12.2922 1.09248e-05 12.3862 -0.00044605 12.4746 0.00489374C13.535 0.0691167 14.4641 0.738914 14.8604 1.72462C14.8934 1.8068 14.9229 1.89579 14.9619 2.01271L14.9873 2.08985C15.0061 2.1462 15.012 2.16221 15.0166 2.17482C15.1765 2.61683 15.7069 2.98559 16.2686 3.00001L16.2314 4.50001C15.1464 4.47251 14.0059 3.7926 13.6055 2.68556C13.5929 2.65076 13.5806 2.61303 13.5645 2.56446L13.5391 2.48732C13.4939 2.35198 13.4808 2.3141 13.4688 2.28419C13.2886 1.83614 12.8658 1.53116 12.3838 1.50196C12.3516 1.50004 12.3116 1.50001 12.1689 1.50001H9.33105C9.188 1.50001 9.14844 1.50001 9.11621 1.50196C8.6342 1.53116 8.21235 1.83614 8.03223 2.28419C8.0202 2.31413 8.00711 2.35173 7.96191 2.48732L7.93652 2.56446C7.92019 2.61345 7.90715 2.65067 7.89453 2.68556C7.49397 3.79267 6.35336 4.47252 5.26855 4.50001L5.23145 3.00001C5.79331 2.98558 6.32454 2.61667 6.48438 2.17482C6.48894 2.16217 6.49395 2.14608 6.5127 2.08985L6.53906 2.01271C6.57804 1.89579 6.60759 1.80681 6.64062 1.72462C7.03688 0.738944 7.965 0.0691531 9.02539 0.00489374C9.11385 -0.00046357 9.20775 1.03732e-05 9.33105 1.09248e-05H12.1689Z"></path><path d="M9 13.7422L9.54297 13.959C10.3178 14.2689 11.1822 14.2689 11.957 13.959L12.5 13.7422V12H9V13.7422ZM14 13.9111C14 14.4223 13.6884 14.8824 13.2139 15.0723L12.5137 15.3525C11.3815 15.8052 10.1185 15.8052 8.98633 15.3525L8.28613 15.0723C7.81156 14.8824 7.5 14.4223 7.5 13.9111V11.75C7.5 11.0596 8.05964 10.5 8.75 10.5H12.75C13.4404 10.5 14 11.0596 14 11.75V13.9111Z"></path></symbol><symbol id="icon-burger" viewBox="0 0 13 9"><path d="M1 2C0.447864 1.99982 0 1.55218 0 1C0 0.447824 0.447864 0.000175711 1 0L11.667 0C12.2193 0 12.667 0.447715 12.667 1C12.667 1.55228 12.2193 2 11.667 2L1 2Z"></path><path d="M1.00098 5.33337C0.448692 5.33337 0.000976562 4.88566 0.000976562 4.33337C0.000976562 3.78109 0.448692 3.33337 1.00098 3.33337L8.33398 3.33337C8.88627 3.33337 9.33398 3.78109 9.33398 4.33337C9.33398 4.88566 8.88627 5.33337 8.33398 5.33337L1.00098 5.33337Z"></path><path d="M1.00098 5.33337C0.448692 5.33337 0.000976562 4.88566 0.000976562 4.33337C0.000976562 3.78109 0.448692 3.33337 1.00098 3.33337L8.33398 3.33337C8.88627 3.33337 9.33398 3.78109 9.33398 4.33337C9.33398 4.88566 8.88627 5.33337 8.33398 5.33337L1.00098 5.33337Z"></path><path d="M1.00098 8.66675C0.448692 8.66675 0.000976562 8.21903 0.000976562 7.66675C0.000976562 7.11446 0.448692 6.66675 1.00098 6.66675H4.33398C4.88627 6.66675 5.33398 7.11446 5.33398 7.66675C5.33398 8.21903 4.88627 8.66675 4.33398 8.66675H1.00098Z"></path></symbol><symbol id="icon-chat" viewBox="0 0 22 22"><path d="M1.5 10.75C1.5 5.64137 5.64137 1.5 10.75 1.5C15.8586 1.5 20 5.64137 20 10.75C20 15.8586 15.8586 20 10.75 20C9.26894 20 7.87113 19.6524 6.63184 19.0352C6.13445 18.7874 5.53925 18.6923 4.95508 18.8486L2.72949 19.4443C2.32073 19.5536 1.94636 19.1793 2.05566 18.7705L2.65137 16.5449C2.80767 15.9608 2.71256 15.3656 2.46484 14.8682C1.84757 13.6289 1.5 12.2311 1.5 10.75ZM0 10.75C0 12.4683 0.403652 14.0947 1.12207 15.5371C1.2292 15.7523 1.25161 15.9724 1.20215 16.1572L0.607422 18.3828C0.199699 19.9066 1.59335 21.3003 3.11719 20.8926L5.34277 20.2979C5.52762 20.2484 5.74771 20.2708 5.96289 20.3779C7.40527 21.0963 9.03169 21.5 10.75 21.5C16.6871 21.5 21.5 16.6871 21.5 10.75C21.5 4.81294 16.6871 0 10.75 0C4.81294 0 0 4.81294 0 10.75Z"></path><path d="M14.75 8.5C15.1642 8.5 15.5 8.83579 15.5 9.25C15.5 9.66421 15.1642 10 14.75 10H6.75C6.33579 10 6 9.66421 6 9.25C6 8.83579 6.33579 8.5 6.75 8.5H14.75Z"></path><path d="M12.25 12C12.6642 12 13 12.3358 13 12.75C13 13.1642 12.6642 13.5 12.25 13.5H6.75C6.33579 13.5 6 13.1642 6 12.75C6 12.3358 6.33579 12 6.75 12H12.25Z"></path></symbol><symbol id="icon-compare" viewBox="0 0 17 21"><path d="M1.5 7.75C1.5 8.99264 2.50736 10 3.75 10C4.99263 9.99999 6 8.99263 6 7.75C6 6.50737 4.99263 5.50001 3.75 5.5C2.50736 5.5 1.5 6.50736 1.5 7.75ZM-3.27835e-07 7.75C-5.08894e-07 5.67893 1.67893 4 3.75 4C5.82106 4.00001 7.5 5.67894 7.5 7.75C7.5 9.82106 5.82106 11.5 3.75 11.5C1.67893 11.5 -1.79249e-08 9.82107 -3.27835e-07 7.75Z"></path><path d="M10.5 12.75C10.5 11.5074 11.5074 10.5 12.75 10.5C13.9926 10.5 15 11.5074 15 12.75C15 13.9926 13.9926 15 12.75 15C11.5074 15 10.5 13.9926 10.5 12.75ZM9 12.75C9 14.8211 10.6789 16.5 12.75 16.5C14.8211 16.5 16.5 14.8211 16.5 12.75C16.5 10.6789 14.8211 9.00001 12.75 9C10.6789 9 9 10.6789 9 12.75Z"></path><path d="M4.5 12.75L4.5 19.75C4.5 20.1642 4.16421 20.5 3.75 20.5C3.33579 20.5 3 20.1642 3 19.75L3 12.75C3 12.3358 3.33579 12 3.75 12C4.16421 12 4.5 12.3358 4.5 12.75Z"></path><path d="M13.5 7.75L13.5 0.75C13.5 0.335786 13.1642 0 12.75 0C12.3358 0 12 0.335786 12 0.75L12 7.75C12 8.16421 12.3358 8.5 12.75 8.5C13.1642 8.5 13.5 8.16421 13.5 7.75Z"></path><path d="M13.5 17.75L13.5 19.75C13.5 20.1642 13.1642 20.5 12.75 20.5C12.3358 20.5 12 20.1642 12 19.75L12 17.75C12 17.3358 12.3358 17 12.75 17C13.1642 17 13.5 17.3358 13.5 17.75Z"></path><path d="M4.5 2.75L4.5 0.75C4.5 0.335786 4.16421 0 3.75 0C3.33579 0 3 0.335786 3 0.75L3 2.75C3 3.16421 3.33579 3.5 3.75 3.5C4.16421 3.5 4.5 3.16421 4.5 2.75Z"></path></symbol><symbol id="icon-cube" viewBox="0 0 16 16"><path d="M5.61454 13.7454C6.78495 14.3596 7.37016 14.6667 7.99967 14.6667V7.99999L1.75835 4.71509C1.74916 4.72986 1.74014 4.74476 1.73127 4.75982C1.33301 5.43616 1.33301 6.27777 1.33301 7.961V8.03899C1.33301 9.72222 1.33301 10.5638 1.73127 11.2402C2.12954 11.9165 2.84676 12.2929 4.2812 13.0457L5.61454 13.7454Z"></path><path opacity="0.7" d="M11.7186 2.95439L10.3853 2.25469C9.21484 1.64048 8.62963 1.33337 8.00011 1.33337C7.3706 1.33337 6.78539 1.64048 5.61497 2.25468L4.28164 2.95439C2.87913 3.69039 2.16227 4.06658 1.75879 4.71513L8.00011 8.00004L14.2414 4.71513C13.838 4.06658 13.1211 3.69039 11.7186 2.95439Z"></path><path opacity="0.5" d="M14.2684 4.75994C14.2595 4.74489 14.2505 4.72998 14.2413 4.71521L8 8.00012V14.6668C8.62951 14.6668 9.21472 14.3597 10.3851 13.7455L11.7185 13.0458C13.1529 12.293 13.8701 11.9166 14.2684 11.2403C14.6667 10.564 14.6667 9.72234 14.6667 8.03911V7.96112C14.6667 6.2779 14.6667 5.43628 14.2684 4.75994Z"></path></symbol><symbol id="icon-heart" viewBox="0 0 22 19"><path d="M20 6.60278C20 4.45209 18.7848 2.64833 17.126 1.88989C15.5143 1.15318 13.348 1.34751 11.29 3.48559C11.1487 3.63249 10.9539 3.71606 10.75 3.71606C10.5461 3.71606 10.3513 3.63249 10.21 3.48559C8.15201 1.34751 5.98571 1.15318 4.37402 1.88989C2.71525 2.64833 1.5 4.45209 1.5 6.60278C1.5001 8.80001 2.39948 10.4941 3.68848 11.9456C5.00318 13.4258 6.66027 14.5927 8.17578 15.7873C8.70181 16.202 9.17173 16.566 9.62402 16.8303C10.0764 17.0946 10.4405 17.2151 10.75 17.2151C11.0595 17.2151 11.4236 17.0946 11.876 16.8303C12.3283 16.566 12.7982 16.202 13.3242 15.7873C14.8397 14.5927 16.4968 13.4258 17.8115 11.9456C19.1005 10.4941 19.9999 8.80001 20 6.60278ZM21.5 6.60278C21.4999 9.26791 20.3896 11.3011 18.9336 12.9407C17.5032 14.5514 15.6795 15.8405 14.2529 16.9651C13.7407 17.3689 13.1901 17.7996 12.6328 18.1252C12.0758 18.4507 11.4403 18.7151 10.75 18.7151C10.0597 18.7151 9.42416 18.4507 8.86719 18.1252C8.30991 17.7996 7.75931 17.3689 7.24707 16.9651C5.82046 15.8405 3.99682 14.5514 2.56641 12.9407C1.11043 11.3011 9.82558e-05 9.26792 0 6.60278C0 3.89071 1.53493 1.53859 3.75098 0.525631C5.8493 -0.433497 8.43785 -0.143877 10.75 1.92505C13.0622 -0.143876 15.6507 -0.433497 17.749 0.525631C19.9651 1.53859 21.5 3.89071 21.5 6.60278Z"></path></symbol><symbol id="icon-list" viewBox="0 0 20 22"><path d="M18 8.75C18 6.84324 17.9985 5.48859 17.8604 4.46094C17.7251 3.45485 17.4711 2.87536 17.0479 2.45215C16.6246 2.02894 16.0452 1.77491 15.0391 1.63965C14.0114 1.5015 12.6568 1.5 10.75 1.5H8.75C6.84324 1.5 5.48859 1.5015 4.46094 1.63965C3.45485 1.77491 2.87536 2.02894 2.45215 2.45215C2.02894 2.87536 1.77491 3.45485 1.63965 4.46094C1.5015 5.48859 1.5 6.84324 1.5 8.75V12.75C1.5 14.6568 1.5015 16.0114 1.63965 17.0391C1.77491 18.0452 2.02894 18.6246 2.45215 19.0479C2.87536 19.4711 3.45485 19.7251 4.46094 19.8604C5.48859 19.9985 6.84324 20 8.75 20H10.75C12.6568 20 14.0114 19.9985 15.0391 19.8604C16.0452 19.7251 16.6246 19.4711 17.0479 19.0479C17.4711 18.6246 17.7251 18.0452 17.8604 17.0391C17.9985 16.0114 18 14.6568 18 12.75V8.75ZM19.5 12.75C19.5 14.6144 19.5014 16.0884 19.3467 17.2393C19.189 18.4116 18.8567 19.3601 18.1084 20.1084C17.3601 20.8567 16.4116 21.189 15.2393 21.3467C14.0884 21.5014 12.6144 21.5 10.75 21.5H8.75C6.88558 21.5 5.41159 21.5014 4.26074 21.3467C3.08844 21.189 2.13991 20.8567 1.3916 20.1084C0.643293 19.3601 0.310963 18.4116 0.153321 17.2393C-0.00140658 16.0884 4.48929e-07 14.6144 4.48929e-07 12.75V8.75C4.48929e-07 6.88558 -0.00140658 5.41159 0.153321 4.26074C0.310963 3.08844 0.643293 2.13991 1.3916 1.3916C2.13991 0.643293 3.08844 0.310963 4.26074 0.153321C5.41159 -0.00140658 6.88558 4.48929e-07 8.75 4.48929e-07H10.75C12.6144 4.48929e-07 14.0884 -0.00140658 15.2393 0.153321C16.4116 0.310963 17.3601 0.643293 18.1084 1.3916C18.8567 2.13991 19.189 3.08844 19.3467 4.26074C19.5014 5.41159 19.5 6.88558 19.5 8.75V12.75Z"></path><path d="M13.75 6C14.1642 6 14.5 6.33579 14.5 6.75C14.5 7.16421 14.1642 7.5 13.75 7.5H5.75C5.33579 7.5 5 7.16421 5 6.75C5 6.33579 5.33579 6 5.75 6H13.75Z"></path><path d="M13.75 10C14.1642 10 14.5 10.3358 14.5 10.75C14.5 11.1642 14.1642 11.5 13.75 11.5H5.75C5.33579 11.5 5 11.1642 5 10.75C5 10.3358 5.33579 10 5.75 10H13.75Z"></path><path d="M10.75 14C11.1642 14 11.5 14.3358 11.5 14.75C11.5 15.1642 11.1642 15.5 10.75 15.5H5.75C5.33579 15.5 5 15.1642 5 14.75C5 14.3358 5.33579 14 5.75 14H10.75Z"></path></symbol><symbol id="icon-personal" viewBox="0 0 22 22"><path d="M19.6289 20C20.0431 20 20.3789 20.3358 20.3789 20.75C20.3789 21.1642 20.0431 21.5 19.6289 21.5H1.62891C1.21469 21.5 0.878906 21.1642 0.878906 20.75C0.878906 20.3358 1.21469 20 1.62891 20H19.6289Z"></path><path d="M16.8789 20.75V13.75C16.8789 13.3358 17.2147 13 17.6289 13C18.0431 13 18.3789 13.3358 18.3789 13.75V20.75C18.3789 21.1642 18.0431 21.5 17.6289 21.5C17.2147 21.5 16.8789 21.1642 16.8789 20.75Z"></path><path d="M2.87891 20.75V13.75C2.87891 13.3358 3.21469 13 3.62891 13C4.04312 13 4.37891 13.3358 4.37891 13.75V20.75C4.37891 21.1642 4.04312 21.5 3.62891 21.5C3.21469 21.5 2.87891 21.1642 2.87891 20.75Z"></path><path d="M15.1564 3.66886e-06C15.7424 3.66886e-06 16.239 -0.00121984 16.6476 0.0410193C17.0734 0.0850471 17.4672 0.181373 17.839 0.411136C18.2104 0.640787 18.4716 0.949707 18.7013 1.31055C18.8115 1.48377 18.9226 1.68154 19.0382 1.90137L19.4054 2.62598L19.4317 2.68555L20.8351 6.2334C21.0021 6.65559 21.1872 7.1827 21.2413 7.72168C21.2966 8.2729 21.2211 8.90451 20.7892 9.45215C20.2868 10.089 19.5056 10.5 18.629 10.5C17.8398 10.5 17.1305 10.1653 16.629 9.63282C16.1275 10.1653 15.4182 10.5 14.629 10.5C13.8398 10.5 13.1305 10.1653 12.629 9.63282C12.1275 10.1653 11.4182 10.5 10.629 10.5C9.8398 10.5 9.13052 10.1653 8.62901 9.63282C8.12752 10.1653 7.41823 10.5 6.62901 10.5C5.8398 10.5 5.13052 10.1653 4.62901 9.63282C4.12752 10.1653 3.41823 10.5 2.62901 10.5C1.75238 10.5 0.971181 10.089 0.468857 9.45215C0.0370166 8.90454 -0.0395418 8.27287 0.0157321 7.72168C0.0698498 7.18277 0.254983 6.65557 0.421982 6.2334L1.82628 2.68555L1.85265 2.62598C2.11472 2.10184 2.33529 1.65706 2.55577 1.31055C2.7855 0.949514 3.04749 0.640876 3.41905 0.411136C3.79083 0.181368 4.18465 0.0850457 4.61046 0.0410193C5.01887 -0.00120297 5.51491 3.19184e-06 6.10069 3.66886e-06H15.1564ZM6.10069 1.5C5.48419 1.5 5.07838 1.50079 4.76476 1.53321C4.46852 1.56384 4.31962 1.61766 4.20812 1.68653C4.09658 1.75546 3.98137 1.86479 3.8214 2.11621C3.65473 2.3782 3.47588 2.73409 3.20714 3.27149L1.81749 6.78516C1.66023 7.1827 1.54125 7.549 1.5089 7.8711C1.47779 8.1809 1.53267 8.37897 1.64659 8.52344C1.87671 8.81513 2.23116 9 2.62901 9C3.31933 8.99996 3.87901 8.44033 3.87901 7.75C3.87901 7.33579 4.2148 7 4.62901 7C5.04319 7.00005 5.37901 7.33582 5.37901 7.75C5.37901 8.44036 5.93866 9 6.62901 9C7.31933 8.99996 7.87901 8.44033 7.87901 7.75C7.87901 7.33579 8.2148 7 8.62901 7C9.04319 7.00005 9.37901 7.33582 9.37901 7.75C9.37901 8.44036 9.93866 9 10.629 9C11.3193 8.99996 11.879 8.44033 11.879 7.75C11.879 7.33579 12.2148 7 12.629 7C13.0432 7.00005 13.379 7.33582 13.379 7.75C13.379 8.44036 13.9387 9 14.629 9C15.3193 8.99996 15.879 8.44033 15.879 7.75C15.879 7.33579 16.2148 7 16.629 7C17.0432 7.00005 17.379 7.33582 17.379 7.75C17.379 8.44036 17.9387 9 18.629 9C19.0269 8.99998 19.3813 8.81514 19.6114 8.52344C19.7254 8.37898 19.7802 8.18089 19.7491 7.8711C19.7168 7.549 19.5978 7.18271 19.4405 6.78516L18.0499 3.27149C17.7813 2.73431 17.6033 2.37814 17.4366 2.11621C17.2767 1.86479 17.1614 1.75546 17.0499 1.68653C16.9384 1.61764 16.7895 1.56384 16.4933 1.53321C16.1796 1.50077 15.7732 1.5 15.1564 1.5H6.10069Z"></path></symbol><symbol id="icon-pin" viewBox="0 0 9 11"><path d="M8 4.57129C7.99981 2.59048 6.42455 1 4.5 1C2.57545 1 1.00019 2.59048 1 4.57129C1 5.59749 1.29582 6.72479 1.82715 7.70312C2.35945 8.68325 3.10671 9.47538 3.98047 9.88379C4.31063 10.0381 4.68937 10.0381 5.01953 9.88379C5.89329 9.47538 6.64055 8.68325 7.17285 7.70312C7.70418 6.72479 8 5.59749 8 4.57129ZM9 4.57129C9 5.77618 8.65673 7.06674 8.05176 8.18066C7.4478 9.29265 6.5613 10.2674 5.44336 10.79C4.84484 11.0698 4.15516 11.0698 3.55664 10.79C2.4387 10.2674 1.5522 9.29265 0.948242 8.18066C0.343274 7.06674 0 5.77618 0 4.57129C0.000190083 2.05501 2.00651 0 4.5 0C6.99349 0 8.99981 2.05501 9 4.57129Z"></path><path d="M5.5 4.5C5.5 3.94772 5.05228 3.5 4.5 3.5C3.94772 3.5 3.5 3.94772 3.5 4.5C3.5 5.05228 3.94772 5.5 4.5 5.5C5.05228 5.5 5.5 5.05228 5.5 4.5ZM6.5 4.5C6.5 5.60457 5.60457 6.5 4.5 6.5C3.39543 6.5 2.5 5.60457 2.5 4.5C2.5 3.39543 3.39543 2.5 4.5 2.5C5.60457 2.5 6.5 3.39543 6.5 4.5Z"></path></symbol><symbol id="icon-search" viewBox="0 0 22 22"><path d="M19 10.25C19 5.41751 15.0825 1.5 10.25 1.5C5.41751 1.5 1.5 5.41751 1.5 10.25C1.5 15.0825 5.41751 19 10.25 19C15.0825 19 19 15.0825 19 10.25ZM20.5 10.25C20.5 15.9109 15.9109 20.5 10.25 20.5C4.58908 20.5 0 15.9109 0 10.25C0 4.58908 4.58908 0 10.25 0C15.9109 0 20.5 4.58908 20.5 10.25Z"></path><path d="M16.7197 16.7197C17.0126 16.4268 17.4873 16.4268 17.7802 16.7197L21.2802 20.2197C21.5731 20.5126 21.5731 20.9873 21.2802 21.2802C20.9873 21.5731 20.5126 21.5731 20.2197 21.2802L16.7197 17.7802C16.4268 17.4873 16.4268 17.0126 16.7197 16.7197Z"></path></symbol><symbol id="slider-arrow-icon" viewBox="0 0 17 13"><path d="M9.66016 0.300683C10.0463 -0.0940729 10.6794 -0.101011 11.0742 0.285058L16.6992 5.78506C16.8916 5.97319 17 6.23085 17 6.4999C17 6.76895 16.8916 7.02662 16.6992 7.21475L11.0742 12.7147C10.6794 13.1008 10.0463 13.0939 9.66016 12.6991C9.27409 12.3043 9.28103 11.6712 9.67578 11.2851L13.5469 7.4999H1C0.447715 7.4999 0 7.05219 0 6.4999C0 5.94762 0.447715 5.4999 1 5.4999H13.5469L9.67578 1.71475C9.28103 1.32862 9.27409 0.695526 9.66016 0.300683Z"></path></symbol></svg>