<svg xmlns="http://www.w3.org/2000/svg"><symbol id="icon-arrow" viewBox="0 0 14 14"><path d="M2.11635 0.998483C2.11635 0.447212 2.56361 6.03623e-05 3.11486 -2.87994e-05L12.9978 -2.87151e-05C13.2624 8.63563e-05 13.5164 0.105648 13.7035 0.292758C13.8904 0.479816 13.9955 0.733367 13.9956 0.997793V10.8807C13.9956 11.432 13.5484 11.8792 12.9971 11.8792C12.4459 11.8791 11.9986 11.4319 11.9986 10.8807L11.9993 3.40845L1.70341 13.7043C1.31366 14.0941 0.681826 14.0939 0.291955 13.7043C-0.0978926 13.3145 -0.0985828 12.682 0.291264 12.2922L10.5871 1.9963L3.11486 1.997C2.56366 1.99691 2.11643 1.54968 2.11635 0.998483Z"></path></symbol><symbol id="icon-burger" viewBox="0 0 17 12"><path d="M17 10V12H7V10H17ZM17 5V7H0V5H17ZM17 0V2H7V0H17Z"></path></symbol><symbol id="icon-check" viewBox="0 0 15 12"><path d="M13.6865 0.320312L14.0713 0.640625L5.38672 11.0605L0 5.67383L0.707031 4.9668L5.31934 9.5791L13.3027 0L13.6865 0.320312Z"></path></symbol><symbol id="icon-cross" viewBox="0 0 17 17"><path d="M16.2119 1.36262L9.56415 8.01038L16.403 14.8492L14.8493 16.403L8.01044 9.56409L1.36268 16.2119L0.0383495 14.8875L6.68612 8.23977L6.12527e-05 1.55371L1.55377 5.56485e-07L8.23983 6.68606L14.8876 0.0382895L16.2119 1.36262Z"></path></symbol><symbol id="icon-filter" viewBox="0 0 24 19"><path d="M23.3333 2.66667H0.666667C0.29848 2.66667 0 2.36819 0 2V0.666667C0 0.29848 0.29848 0 0.666667 0H23.3333C23.7015 0 24 0.29848 24 0.666667V2C24 2.36819 23.7015 2.66667 23.3333 2.66667ZM20 10V8.66667C20 8.29853 19.7015 8 19.3333 8H4.66667C4.29848 8 4 8.29853 4 8.66667V10C4 10.3681 4.29848 10.6667 4.66667 10.6667H19.3333C19.7015 10.6667 20 10.3681 20 10ZM16 16.6667V18C16 18.3681 15.7015 18.6667 15.3333 18.6667H8.66667C8.29848 18.6667 8 18.3681 8 18V16.6667C8 16.2985 8.29848 16 8.66667 16H15.3333C15.7015 16 16 16.2985 16 16.6667Z"></path></symbol><symbol id="icon-mail copy" viewBox="0 0 32 32"><path clip-rule="evenodd" d="M5.33268 5.33398H26.666C28.1388 5.33398 29.3327 6.52789 29.3327 8.00065V24.0007C29.3327 25.4735 28.1388 26.6673 26.666 26.6673H5.33268C3.85992 26.6673 2.66602 25.4735 2.66602 24.0007V8.00065C2.66602 6.52789 3.85992 5.33398 5.33268 5.33398ZM18.1993 20.6007L26.666 14.6673V11.8673L16.866 18.734C16.3448 19.0957 15.6539 19.0957 15.1327 18.734L5.33268 11.8673V14.6673L13.7993 20.6007C15.1207 21.5243 16.878 21.5243 18.1993 20.6007Z"></path></symbol><symbol id="icon-mail" viewBox="0 0 24 18"><path d="M23.2969 0.449219H0.703125C0.314812 0.449219 0 0.764031 0 1.15234V16.6174C0 17.0058 0.314812 17.3206 0.703125 17.3206H23.2969C23.6852 17.3206 24 17.0058 24 16.6174V1.15234C24 0.764031 23.6852 0.449219 23.2969 0.449219ZM22.5938 15.1638L14.6797 8.89745L22.5938 2.63102V15.1638ZM1.40625 2.63102L9.3203 8.89741L1.40625 15.1639V2.63102ZM12 9.22558L2.69208 1.85547H21.3079L12 9.22558ZM10.4529 9.79427L11.5635 10.6736C11.6914 10.7749 11.8457 10.8255 12 10.8255C12.1543 10.8255 12.3086 10.7749 12.4365 10.6736L13.5471 9.79427L21.2762 15.9143H2.72381L10.4529 9.79427Z"></path></symbol><symbol id="icon-phone copy" viewBox="0 0 32 32"><path d="M22.6667 28.0004C20.4617 27.9984 18.2911 27.4534 16.3467 26.4137L15.7467 26.0804C11.601 23.8514 8.20225 20.4526 5.97333 16.307L5.64 15.707C4.57309 13.7516 4.00951 11.5613 4 9.33369V8.44036C3.99944 7.72964 4.28261 7.04809 4.78667 6.54702L7.04 4.29369C7.25884 4.07316 7.56775 3.96686 7.87595 4.00604C8.18415 4.04521 8.45664 4.22542 8.61333 4.49369L11.6133 9.64036C11.9167 10.1642 11.8291 10.8267 11.4 11.2537L8.88 13.7737C8.67072 13.9806 8.62196 14.3004 8.76 14.5604L9.22667 15.4404C10.9027 18.5449 13.4524 21.09 16.56 22.7604L17.44 23.2404C17.7 23.3784 18.0197 23.3296 18.2267 23.1204L20.7467 20.6004C21.1736 20.1713 21.8361 20.0837 22.36 20.387L27.5067 23.387C27.7749 23.5437 27.9552 23.8162 27.9943 24.1244C28.0335 24.4326 27.9272 24.7416 27.7067 24.9604L25.4533 27.2137C24.9523 27.7177 24.2707 28.0009 23.56 28.0004H22.6667Z"></path></symbol><symbol id="icon-phone" viewBox="0 0 24 24"><path d="M5.88656 18.1134C9.20409 21.4309 13.4151 23.5165 17.744 23.9859C17.8324 23.9955 17.9197 24.0002 18.006 24.0002C18.5667 24.0002 19.0777 23.7984 19.4961 23.4089L23.2763 19.8897C23.7868 19.4145 24.048 18.7488 23.9929 18.0632C23.9383 17.3841 23.5784 16.7748 23.0054 16.3918L19.5194 14.0614C18.6226 13.4619 17.4635 13.576 16.7007 14.3388C16.5512 14.4883 16.4059 14.6473 16.2521 14.8158C15.5536 15.5805 15.0175 16.1097 14.4796 15.9515C11.5067 15.0779 8.92219 12.4934 8.04853 9.52047C7.95942 9.21733 8.03344 8.92727 8.25689 8.70382C8.37872 8.58199 8.52075 8.45102 8.67108 8.31232C9.13908 7.88069 9.66956 7.39141 10.0004 6.80918C10.568 5.81013 10.2801 4.99155 9.93863 4.48076L7.60824 0.994709C7.22517 0.421709 6.61599 0.0618023 5.93681 0.00723982C5.25131 -0.0478383 4.58555 0.213302 4.11033 0.723771L0.591048 4.50396C0.141658 4.98668 -0.0578424 5.59254 0.0141107 6.25601C0.48347 10.5849 2.56903 14.7959 5.88656 18.1134ZM1.62033 5.46213L5.13956 1.68185C5.30461 1.50461 5.52722 1.40622 5.75859 1.40622C5.78039 1.40622 5.80224 1.40711 5.82413 1.40885C6.07589 1.4291 6.29428 1.55951 6.43913 1.77611L8.76947 5.26216C9.14199 5.81941 8.7645 6.31296 7.7176 7.27854C7.55649 7.42708 7.40433 7.56747 7.26244 7.70936C6.67589 8.29587 6.46538 9.12115 6.69928 9.91694C7.70236 13.3302 10.6697 16.2976 14.083 17.3007C14.2938 17.3626 14.4959 17.3906 14.6898 17.3906C15.8048 17.3905 16.6487 16.4667 17.2904 15.764C17.4331 15.6078 17.568 15.4601 17.695 15.3331C17.9772 15.0509 18.406 15.0087 18.7378 15.2305L22.2238 17.5608C22.4404 17.7057 22.5709 17.9241 22.5911 18.1758C22.6115 18.4304 22.512 18.6798 22.3181 18.8604L18.5378 22.3796C18.358 22.5471 18.1479 22.6151 17.8955 22.5878C9.55669 21.6836 2.31638 14.4433 1.41216 6.10441C1.38478 5.85208 1.45289 5.64199 1.62033 5.46213Z"></path></symbol><symbol id="icon-pin copy" viewBox="0 0 32 32"><path d="M15.9995 2.66602C10.6742 2.66602 6.3418 6.99842 6.3418 12.3236C6.3418 18.9324 14.9844 28.6344 15.3524 29.0441C15.698 29.4291 16.3015 29.4284 16.6465 29.0441C17.0144 28.6344 25.6571 18.9324 25.6571 12.3236C25.6569 6.99842 21.3247 2.66602 15.9995 2.66602ZM15.9995 17.1827C13.3202 17.1827 11.1405 15.0029 11.1405 12.3236C11.1405 9.64435 13.3202 7.46466 15.9995 7.46466C18.6787 7.46466 20.8584 9.6444 20.8584 12.3237C20.8584 15.0029 18.6787 17.1827 15.9995 17.1827Z"></path></symbol><symbol id="icon-pin-clear" viewBox="0 0 32 32"><path d="M16.4 25.5795C18.8082 23.4118 20.6515 21.341 21.9302 19.3671C23.2086 17.3932 23.8479 15.6676 23.8479 14.1903C23.8479 11.9547 23.1355 10.1181 21.7107 8.68053C20.2858 7.24299 18.5147 6.5242 16.3978 6.5242C14.2806 6.5242 12.5104 7.24299 11.0871 8.68053C9.66376 10.1181 8.95208 11.9547 8.95208 14.1903C8.95208 15.6676 9.59128 17.3932 10.8698 19.3671C12.1485 21.341 13.9918 23.4118 16.4 25.5795ZM16.4 27.2C16.1625 27.2 15.929 27.1609 15.6996 27.0824C15.4702 27.004 15.2642 26.8804 15.0815 26.7117C14.1806 25.8924 13.2638 24.9833 12.331 23.9844C11.3982 22.9856 10.5526 21.9445 9.79432 20.861C9.036 19.7773 8.414 18.6684 7.92826 17.534C7.44275 16.3995 7.2 15.2848 7.2 14.1903C7.2 11.3995 8.11112 9.13677 9.93336 7.40194C11.7558 5.66734 13.9113 4.80005 16.4 4.80005C18.8887 4.80005 21.0442 5.66734 22.8666 7.40194C24.6889 9.13677 25.6 11.3995 25.6 14.1903C25.6 15.2848 25.3582 16.3975 24.8746 17.5281C24.391 18.6585 23.7699 19.7664 23.0116 20.852C22.2533 21.9375 21.4098 22.9787 20.4809 23.9755C19.552 24.9724 18.6353 25.8806 17.7306 26.6999C17.5507 26.8685 17.3443 26.994 17.1114 27.0763C16.8784 27.1588 16.6413 27.2 16.4 27.2ZM16.4034 16.0972C17.009 16.0972 17.527 15.8836 17.9577 15.4564C18.3882 15.0291 18.6036 14.5155 18.6036 13.9156C18.6036 13.3158 18.3876 12.8025 17.9558 12.3758C17.5239 11.9489 17.0047 11.7354 16.3982 11.7354C15.7915 11.7354 15.274 11.9495 14.8455 12.3776C14.4167 12.8056 14.2024 13.3202 14.2024 13.9212C14.2024 14.5221 14.4179 15.035 14.849 15.4599C15.2799 15.8848 15.7982 16.0972 16.4034 16.0972Z"></path></symbol><symbol id="icon-pin" viewBox="0 0 15 20"><path d="M7.24327 0C3.2493 0 0 3.2493 0 7.24318C0 12.1998 6.48195 19.4763 6.75795 19.7836C7.01715 20.0723 7.46977 20.0718 7.72852 19.7836C8.00445 19.4763 14.4865 12.1998 14.4865 7.24318C14.4863 3.2493 11.2372 0 7.24327 0ZM7.24327 10.8875C5.2338 10.8875 3.59902 9.25266 3.59902 7.24318C3.59902 5.23375 5.2338 3.59898 7.24327 3.59898C9.25268 3.59898 10.8874 5.23379 10.8874 7.24326C10.8874 9.25266 9.25268 10.8875 7.24327 10.8875Z"></path></symbol><symbol id="icon-plus" viewBox="0 0 20 20"><path d="M20 8.01887V11.3019H0V8.01887H20ZM11.8637 0V20H8.15631V0H11.8637Z"></path></symbol><symbol id="icon-search" viewBox="0 0 23 23"><path d="M8.11608 16.2277C5.84968 16.2277 3.93032 15.4418 2.35807 13.8702C0.786024 12.2984 0 10.3796 0 8.11384C0 5.84808 0.786024 3.92928 2.35807 2.35742C3.93032 0.785808 5.84968 0 8.11608 0C10.3825 0 12.3018 0.785808 13.8741 2.35742C15.4461 3.92928 16.2321 5.84808 16.2321 8.11384C16.2321 9.06136 16.073 9.9664 15.755 10.8288C15.4367 11.6913 15.0121 12.4414 14.4812 13.0791L22.1178 20.7136C22.3017 20.8971 22.3957 21.128 22.3998 21.4062C22.4041 21.6844 22.3101 21.9196 22.1178 22.1118C21.9256 22.3039 21.6925 22.4 21.4184 22.4C21.1446 22.4 20.9115 22.3039 20.7193 22.1118L13.0827 14.4772C12.4191 15.025 11.656 15.4537 10.7933 15.7633C9.93064 16.0729 9.03824 16.2277 8.11608 16.2277ZM8.11608 14.2378C9.82616 14.2378 11.2746 13.6445 12.4613 12.4578C13.6482 11.2714 14.2417 9.82344 14.2417 8.11384C14.2417 6.40424 13.6482 4.95624 12.4613 3.76984C11.2746 2.5832 9.82616 1.9899 8.11608 1.9899C6.406 1.9899 4.9576 2.5832 3.77088 3.76984C2.58391 4.95624 1.99044 6.40424 1.99044 8.11384C1.99044 9.82344 2.58391 11.2714 3.77088 12.4578C4.9576 13.6445 6.406 14.2378 8.11608 14.2378Z"></path></symbol><symbol id="icon-star" viewBox="0 0 16 16"><path d="M7.61753 1.59959C7.90578 1.49624 8.2256 1.51362 8.50327 1.65135C8.78887 1.79303 8.93449 2.03978 8.99839 2.15428C9.07212 2.2864 9.14745 2.4557 9.21811 2.61424L10.3832 5.23143L13.2347 5.53318C13.4072 5.55139 13.5912 5.57033 13.7396 5.59959C13.8682 5.62495 14.1484 5.68629 14.3714 5.91404C14.6191 6.16713 14.7345 6.52181 14.683 6.87205C14.6365 7.18773 14.4458 7.40296 14.3568 7.499C14.2539 7.6099 14.1155 7.73347 13.9867 7.84959L11.8578 9.76658L12.4525 12.5713C12.4885 12.7411 12.5282 12.922 12.5462 13.0722C12.5618 13.2023 12.5895 13.4879 12.4417 13.7705C12.2775 14.0845 11.9756 14.3031 11.6263 14.3623C11.312 14.4154 11.0489 14.3011 10.93 14.2461C10.7928 14.1825 10.633 14.0896 10.4828 14.0029L7.99936 12.5703L5.51792 14.0029C5.36757 14.0896 5.20699 14.1825 5.06968 14.2461C4.95075 14.3011 4.68773 14.4164 4.37339 14.3633C4.06797 14.3115 3.79889 14.1369 3.62632 13.8838L3.55796 13.7705C3.41024 13.4879 3.43787 13.2023 3.45347 13.0722C3.4715 12.922 3.5112 12.7411 3.54722 12.5713L4.14097 9.76658L2.01304 7.84959C1.88416 7.73344 1.7458 7.6099 1.64292 7.499C1.5539 7.40301 1.36341 7.18833 1.31675 6.87303C1.26524 6.52274 1.3805 6.16714 1.62827 5.91404L1.71421 5.83592C1.91897 5.67118 2.14767 5.62177 2.26011 5.59959C2.40846 5.57033 2.59248 5.55139 2.76499 5.53318L5.61557 5.23143L6.78159 2.61424C6.85226 2.45569 6.92758 2.28641 7.00132 2.15428C7.06521 2.03979 7.21081 1.79304 7.49643 1.65135L7.61753 1.59959Z"></path></symbol><symbol id="long-arrow" viewBox="0 0 72 19"><path d="M61.9375 0.287058C62.3312 -0.10023 62.9652 -0.0949566 63.3525 0.298777L71.7129 8.79878C72.0956 9.18792 72.0956 9.81198 71.7129 10.2011L63.3525 18.7011C62.9652 19.0949 62.3312 19.1001 61.9375 18.7128C61.5441 18.3256 61.5388 17.6925 61.9258 17.2988L68.6133 10.4999H1C0.447715 10.4999 0 10.0522 0 9.49995C5.15407e-07 8.94766 0.447715 8.49995 1 8.49995H68.6133L61.9258 1.70112C61.5388 1.30744 61.5441 0.674278 61.9375 0.287058Z"></path></symbol></svg>