<svg xmlns="http://www.w3.org/2000/svg"><symbol id="icon-arrow" viewBox="0 0 14 14"><path d="M2.11635 0.998483C2.11635 0.447212 2.56361 6.03623e-05 3.11486 -2.87994e-05L12.9978 -2.87151e-05C13.2624 8.63563e-05 13.5164 0.105648 13.7035 0.292758C13.8904 0.479816 13.9955 0.733367 13.9956 0.997793V10.8807C13.9956 11.432 13.5484 11.8792 12.9971 11.8792C12.4459 11.8791 11.9986 11.4319 11.9986 10.8807L11.9993 3.40845L1.70341 13.7043C1.31366 14.0941 0.681826 14.0939 0.291955 13.7043C-0.0978926 13.3145 -0.0985828 12.682 0.291264 12.2922L10.5871 1.9963L3.11486 1.997C2.56366 1.99691 2.11643 1.54968 2.11635 0.998483Z"></path></symbol><symbol id="icon-burger" viewBox="0 0 17 12"><path d="M17 10V12H7V10H17ZM17 5V7H0V5H17ZM17 0V2H7V0H17Z"></path></symbol><symbol id="icon-check" viewBox="0 0 15 12"><path d="M13.6865 0.320312L14.0713 0.640625L5.38672 11.0605L0 5.67383L0.707031 4.9668L5.31934 9.5791L13.3027 0L13.6865 0.320312Z"></path></symbol><symbol id="icon-cross" viewBox="0 0 17 17"><path d="M16.2119 1.36262L9.56415 8.01038L16.403 14.8492L14.8493 16.403L8.01044 9.56409L1.36268 16.2119L0.0383495 14.8875L6.68612 8.23977L6.12527e-05 1.55371L1.55377 5.56485e-07L8.23983 6.68606L14.8876 0.0382895L16.2119 1.36262Z"></path></symbol><symbol id="icon-mail" viewBox="0 0 24 18"><path d="M23.2969 0.449219H0.703125C0.314812 0.449219 0 0.764031 0 1.15234V16.6174C0 17.0058 0.314812 17.3206 0.703125 17.3206H23.2969C23.6852 17.3206 24 17.0058 24 16.6174V1.15234C24 0.764031 23.6852 0.449219 23.2969 0.449219ZM22.5938 15.1638L14.6797 8.89745L22.5938 2.63102V15.1638ZM1.40625 2.63102L9.3203 8.89741L1.40625 15.1639V2.63102ZM12 9.22558L2.69208 1.85547H21.3079L12 9.22558ZM10.4529 9.79427L11.5635 10.6736C11.6914 10.7749 11.8457 10.8255 12 10.8255C12.1543 10.8255 12.3086 10.7749 12.4365 10.6736L13.5471 9.79427L21.2762 15.9143H2.72381L10.4529 9.79427Z"></path></symbol><symbol id="icon-phone" viewBox="0 0 24 24"><path d="M5.88656 18.1134C9.20409 21.4309 13.4151 23.5165 17.744 23.9859C17.8324 23.9955 17.9197 24.0002 18.006 24.0002C18.5667 24.0002 19.0777 23.7984 19.4961 23.4089L23.2763 19.8897C23.7868 19.4145 24.048 18.7488 23.9929 18.0632C23.9383 17.3841 23.5784 16.7748 23.0054 16.3918L19.5194 14.0614C18.6226 13.4619 17.4635 13.576 16.7007 14.3388C16.5512 14.4883 16.4059 14.6473 16.2521 14.8158C15.5536 15.5805 15.0175 16.1097 14.4796 15.9515C11.5067 15.0779 8.92219 12.4934 8.04853 9.52047C7.95942 9.21733 8.03344 8.92727 8.25689 8.70382C8.37872 8.58199 8.52075 8.45102 8.67108 8.31232C9.13908 7.88069 9.66956 7.39141 10.0004 6.80918C10.568 5.81013 10.2801 4.99155 9.93863 4.48076L7.60824 0.994709C7.22517 0.421709 6.61599 0.0618023 5.93681 0.00723982C5.25131 -0.0478383 4.58555 0.213302 4.11033 0.723771L0.591048 4.50396C0.141658 4.98668 -0.0578424 5.59254 0.0141107 6.25601C0.48347 10.5849 2.56903 14.7959 5.88656 18.1134ZM1.62033 5.46213L5.13956 1.68185C5.30461 1.50461 5.52722 1.40622 5.75859 1.40622C5.78039 1.40622 5.80224 1.40711 5.82413 1.40885C6.07589 1.4291 6.29428 1.55951 6.43913 1.77611L8.76947 5.26216C9.14199 5.81941 8.7645 6.31296 7.7176 7.27854C7.55649 7.42708 7.40433 7.56747 7.26244 7.70936C6.67589 8.29587 6.46538 9.12115 6.69928 9.91694C7.70236 13.3302 10.6697 16.2976 14.083 17.3007C14.2938 17.3626 14.4959 17.3906 14.6898 17.3906C15.8048 17.3905 16.6487 16.4667 17.2904 15.764C17.4331 15.6078 17.568 15.4601 17.695 15.3331C17.9772 15.0509 18.406 15.0087 18.7378 15.2305L22.2238 17.5608C22.4404 17.7057 22.5709 17.9241 22.5911 18.1758C22.6115 18.4304 22.512 18.6798 22.3181 18.8604L18.5378 22.3796C18.358 22.5471 18.1479 22.6151 17.8955 22.5878C9.55669 21.6836 2.31638 14.4433 1.41216 6.10441C1.38478 5.85208 1.45289 5.64199 1.62033 5.46213Z"></path></symbol><symbol id="icon-pin" viewBox="0 0 20 25"><path d="M3.29421 16.8747L9.44942 24.6191C9.58278 24.787 9.78542 24.8848 9.99982 24.8848C10.2142 24.8848 10.4169 24.787 10.5503 24.6191L16.7055 16.8747C18.2885 14.883 19.1902 12.4992 19.2446 10.1624C19.3031 7.64311 18.4067 5.38416 16.6522 3.62972C14.8821 1.85962 12.5195 0.884766 9.99982 0.884766C7.48011 0.884766 5.11756 1.85962 3.34746 3.62972C1.59298 5.3842 0.696589 7.64316 0.755136 10.1624C0.809464 12.4991 1.7112 14.883 3.29421 16.8747ZM4.34182 4.62408C5.90178 3.06417 7.95082 2.28422 9.99982 2.28422C12.0489 2.28422 14.0979 3.06417 15.6578 4.62408C18.6064 7.57261 18.5845 12.2505 15.6046 15.9998L9.99982 23.0516L4.39507 15.9998C1.41518 12.2505 1.39334 7.57261 4.34182 4.62408ZM9.99982 13.9383C12.0007 13.9383 13.6286 12.3104 13.6286 10.3095C13.6286 8.30859 12.0008 6.68072 9.99982 6.68072C7.99887 6.68072 6.371 8.30859 6.371 10.3095C6.371 12.3104 7.99892 13.9383 9.99982 13.9383ZM9.99982 8.08697C11.2253 8.08697 12.2224 9.084 12.2224 10.3095C12.2224 11.535 11.2253 12.532 9.99982 12.532C8.77428 12.532 7.77725 11.535 7.77725 10.3095C7.77725 9.084 8.77432 8.08697 9.99982 8.08697Z"></path></symbol><symbol id="icon-plus" viewBox="0 0 20 20"><path d="M20 8.01887V11.3019H0V8.01887H20ZM11.8637 0V20H8.15631V0H11.8637Z"></path></symbol><symbol id="long-arrow" viewBox="0 0 72 19"><path d="M61.9375 0.287058C62.3312 -0.10023 62.9652 -0.0949566 63.3525 0.298777L71.7129 8.79878C72.0956 9.18792 72.0956 9.81198 71.7129 10.2011L63.3525 18.7011C62.9652 19.0949 62.3312 19.1001 61.9375 18.7128C61.5441 18.3256 61.5388 17.6925 61.9258 17.2988L68.6133 10.4999H1C0.447715 10.4999 0 10.0522 0 9.49995C5.15407e-07 8.94766 0.447715 8.49995 1 8.49995H68.6133L61.9258 1.70112C61.5388 1.30744 61.5441 0.674278 61.9375 0.287058Z"></path></symbol></svg>