<svg width="16" height="19" viewBox="0 0 16 19" fill="none" xmlns="http://www.w3.org/2000/svg">
<path d="M0.289026 8.69242C-0.100781 8.30261 -0.100705 7.67017 0.289025 7.28031L7.27732 0.292017C7.4645 0.104998 7.71875 3.64837e-05 7.98336 4.35644e-05C8.24778 0.000155285 8.50139 0.105126 8.68844 0.292033L15.6767 7.2803C16.0665 7.67013 16.0665 8.30257 15.6767 8.6924C15.2869 9.08208 14.6544 9.08215 14.2646 8.6924L8.98143 3.40822L8.9814 17.9688C8.98144 18.52 8.53452 18.9666 7.98335 18.9668C7.43206 18.9669 6.98433 18.5201 6.98436 17.9688L6.98431 3.40826L1.70114 8.69242C1.31132 9.08212 0.678838 9.08212 0.289026 8.69242Z" fill="white"/>
</svg>
