<svg width="37" height="29" viewBox="0 0 37 29" fill="none" xmlns="http://www.w3.org/2000/svg">
<path d="M0 29V20.6583C0 18.2323 0.470738 15.7317 1.41221 13.1564C2.35369 10.5811 3.59644 8.15508 5.14046 5.87838C6.68448 3.56435 8.37914 1.60489 10.2244 0L17.7939 4.3668C16.4382 6.60618 15.2707 9.01351 14.2916 11.5888C13.3125 14.1641 12.8229 17.1873 12.8229 20.6583V29H0ZM19.2061 29V20.6583C19.2061 18.2323 19.6768 15.7317 20.6183 13.1564C21.5598 10.5811 22.8025 8.15508 24.3466 5.87838C25.8906 3.56435 27.5852 1.60489 29.4305 0L37 4.3668C35.6443 6.60618 34.4768 9.01351 33.4977 11.5888C32.5186 14.1641 32.029 17.1873 32.029 20.6583V29H19.2061Z" fill="white"/>
</svg>
