<svg width="15" height="15" viewBox="0 0 15 15" fill="none" xmlns="http://www.w3.org/2000/svg">
<g clip-path="url(#clip0_4137_893)">
<path fill-rule="evenodd" clip-rule="evenodd" d="M12.3625 2.76838C13.0425 2.48208 13.7714 3.05704 13.6513 3.78497L12.2333 12.3829C12.0965 13.2119 11.186 13.6876 10.4255 13.2745C9.78902 12.9288 8.84477 12.3967 7.99377 11.8407C7.56883 11.563 6.26764 10.6726 6.42758 10.0388C6.56433 9.49685 8.75177 7.46066 10.0018 6.24973C10.4928 5.77406 10.2691 5.49926 9.68927 5.93723C8.25077 7.02366 5.94128 8.67548 5.17756 9.14035C4.50373 9.55048 4.1519 9.62048 3.73224 9.55048C2.96591 9.42279 2.25543 9.22504 1.67538 8.9846C0.8914 8.6596 0.929588 7.58223 1.67485 7.26848L12.3625 2.76838Z" fill="white"/>
</g>
<defs>
<clipPath id="clip0_4137_893">
<rect width="15" height="15" fill="white"/>
</clipPath>
</defs>
</svg>
