<svg width="15" height="15" viewBox="0 0 15 15" fill="none" xmlns="http://www.w3.org/2000/svg">
<g clip-path="url(#clip0_4137_901)">
<path d="M8.71456 14C3.24797 14 0.129919 9.87087 0 3H2.73829C2.82823 8.04304 4.84697 10.1792 6.44597 10.6196V3H9.02436V7.34935C10.6034 7.16216 12.2623 5.18018 12.822 3H15.4004C15.1895 4.1307 14.7691 5.2013 14.1655 6.14482C13.562 7.08835 12.7882 7.8845 11.8926 8.48348C12.8923 9.03079 13.7753 9.80546 14.4833 10.7564C15.1913 11.7073 15.7082 12.8128 16 14H13.1618C12.8999 12.9688 12.3676 12.0458 11.6316 11.3465C10.8956 10.6472 9.9886 10.2029 9.02436 10.0691V14H8.71456Z" fill="white"/>
</g>
<defs>
<clipPath id="clip0_4137_901">
<rect width="15" height="15" fill="white"/>
</clipPath>
</defs>
</svg>
