<svg width="15" height="15" viewBox="0 0 15 15" fill="none" xmlns="http://www.w3.org/2000/svg">
<g clip-path="url(#clip0_4137_888)">
<path d="M10.7065 8.89783C10.5283 8.81345 9.67521 8.39158 9.51584 8.32595C9.35646 8.26033 9.24396 8.24158 9.12209 8.4197C9.00021 8.59783 8.67209 8.9822 8.56896 9.10408C8.46584 9.22595 8.37209 9.23533 8.19396 9.10408C7.68234 8.89876 7.20984 8.60701 6.79709 8.24158C6.42345 7.88979 6.10713 7.48174 5.85959 7.0322C5.75646 6.86345 5.85959 6.7697 5.93459 6.67595C6.00959 6.5822 6.10334 6.47908 6.19709 6.37595C6.26564 6.28677 6.32237 6.18908 6.36584 6.08533C6.38909 6.03708 6.40117 5.9842 6.40117 5.93064C6.40117 5.87707 6.38909 5.8242 6.36584 5.77595C6.36584 5.69158 5.97209 4.83845 5.82209 4.49158C5.67209 4.1447 5.54084 4.19158 5.43771 4.19158H5.06271C4.88407 4.19854 4.71549 4.27609 4.59396 4.4072C4.3978 4.59439 4.24242 4.82009 4.13756 5.07014C4.03269 5.32019 3.98062 5.58921 3.98459 5.86033C4.03254 6.52593 4.27728 7.16226 4.68771 7.68845C5.44087 8.80729 6.47128 9.71173 7.67834 10.3135C8.09084 10.4916 8.40959 10.5947 8.66271 10.6791C9.01816 10.7865 9.39386 10.809 9.75959 10.7447C10.0025 10.6954 10.2327 10.5968 10.4359 10.4549C10.6391 10.3129 10.8109 10.1308 10.9408 9.9197C11.0489 9.65902 11.0846 9.37397 11.044 9.0947C10.9971 9.02908 10.8846 8.9822 10.7065 8.89783Z" fill="white"/>
<path d="M12.4609 2.51274C11.8126 1.85825 11.0397 1.34023 10.188 0.989221C9.33621 0.638211 8.42278 0.461322 7.50156 0.468989C6.28121 0.475375 5.0839 0.801832 4.0292 1.41575C2.97449 2.02967 2.09933 2.90957 1.4911 3.96757C0.88287 5.02556 0.562872 6.22462 0.563063 7.44499C0.563254 8.66535 0.883628 9.86431 1.49219 10.9221L0.554688 14.5315L4.24844 13.594C5.26959 14.1497 6.41402 14.4398 7.57656 14.4377H7.50156C8.88711 14.4468 10.244 14.0429 11.3991 13.2777C12.5542 12.5125 13.4552 11.4206 13.9873 10.1413C14.5193 8.86191 14.6583 7.45309 14.3865 6.09444C14.1146 4.73579 13.4443 3.48889 12.4609 2.51274ZM7.50156 13.2377C6.46145 13.2386 5.44069 12.9566 4.54844 12.4221L4.34219 12.3002L2.14844 12.8721L2.72969 10.7346L2.59844 10.519C1.84971 9.31321 1.56964 7.87454 1.81136 6.47594C2.05308 5.07735 2.79978 3.81613 3.90978 2.9316C5.01978 2.04707 6.41586 1.60076 7.83312 1.67735C9.25038 1.75394 10.5902 2.34811 11.5984 3.34711C12.1389 3.88326 12.5673 4.52162 12.8587 5.22499C13.15 5.92836 13.2984 6.68268 13.2953 7.44399C13.2928 8.97983 12.6816 10.4521 11.5956 11.5381C10.5096 12.6241 9.0374 13.2353 7.50156 13.2377Z" fill="white"/>
</g>
<defs>
<clipPath id="clip0_4137_888">
<rect width="15" height="15" fill="white"/>
</clipPath>
</defs>
</svg>
